<svg viewBox="0 0 428 428" fill="none" xmlns="http://www.w3.org/2000/svg">
<path d="M203.386 398.256L203.357 398.542L202.748 398.48C202.336 398.438 202 398.515 201.738 398.711C201.476 398.914 201.242 399.345 201.036 400.006C200.824 400.666 200.655 401.613 200.528 402.849L199.017 417.64C198.991 417.896 198.976 418.1 198.972 418.25C198.969 418.407 198.984 418.55 199.019 418.68C199.053 418.817 199.098 418.915 199.152 418.974C199.205 419.04 199.299 419.098 199.433 419.148C199.566 419.204 199.706 419.242 199.855 419.263C200.003 419.291 200.208 419.318 200.471 419.344L201.223 419.421L201.194 419.708L196.574 419.236L189.766 403.341C189.474 402.666 189.332 402.278 189.343 402.176L189.164 402.158C189.166 402.375 189.135 402.794 189.071 403.415L188.098 412.941C187.908 414.804 187.905 416.13 188.089 416.921C188.274 417.712 188.688 418.14 189.333 418.206L190.837 418.36L190.808 418.646L184.541 418.006L184.57 417.719L185.179 417.782C185.638 417.829 186.003 417.739 186.274 417.514C186.537 417.293 186.77 416.819 186.971 416.092C187.171 415.371 187.344 414.3 187.489 412.879L189.176 396.369L189.499 396.402C189.484 396.545 189.712 397.148 190.182 398.209L197.849 415.964C197.928 416.135 198.009 416.321 198.091 416.523C198.173 416.724 198.235 416.884 198.277 417.003C198.318 417.128 198.338 417.196 198.337 417.208L198.48 417.223C198.478 417.006 198.51 416.575 198.576 415.93L199.919 402.787C200.09 401.121 200.078 399.932 199.886 399.219C199.693 398.511 199.274 398.125 198.629 398.059L198.021 397.997L198.05 397.71L203.386 398.256Z" fill="black"/>
<path d="M170.752 393.019C172.14 393.353 173.367 393.873 174.431 394.58C175.496 395.286 176.343 396.123 176.975 397.089C177.601 398.054 178.009 399.14 178.201 400.346C178.385 401.556 178.319 402.818 178.003 404.131C177.775 405.081 177.395 405.968 176.864 406.791C176.327 407.612 175.68 408.314 174.922 408.897C174.165 409.48 173.339 409.951 172.444 410.31C171.542 410.673 170.58 410.889 169.558 410.958C168.53 411.026 167.511 410.938 166.502 410.695C165.113 410.362 163.887 409.841 162.822 409.135C161.758 408.429 160.913 407.593 160.287 406.628C159.654 405.667 159.245 404.585 159.06 403.38C158.867 402.179 158.928 400.926 159.242 399.619C159.53 398.423 160.052 397.339 160.811 396.368C161.569 395.396 162.463 394.615 163.494 394.023C164.519 393.43 165.669 393.037 166.943 392.844C168.211 392.655 169.48 392.713 170.752 393.019ZM170.556 393.527C169.214 393.205 167.949 393.243 166.761 393.642C165.565 394.046 164.541 394.775 163.689 395.829C162.832 396.882 162.217 398.181 161.845 399.727C161.465 401.308 161.428 402.845 161.736 404.338C162.043 405.831 162.643 407.099 163.534 408.14C164.424 409.187 165.505 409.863 166.776 410.169C168.118 410.492 169.377 410.452 170.554 410.05C171.729 409.654 172.739 408.931 173.584 407.881C174.429 406.832 175.037 405.534 175.409 403.988C175.693 402.804 175.782 401.625 175.676 400.451C175.568 399.284 175.299 398.232 174.87 397.296C174.441 396.359 173.851 395.554 173.1 394.88C172.349 394.206 171.501 393.755 170.556 393.527Z" fill="black"/>
<path d="M148.336 396.517C148.969 394.922 149.297 393.422 149.32 392.017C149.334 390.616 149.049 389.408 148.464 388.394C147.871 387.384 147.011 386.655 145.885 386.208C145.11 385.9 144.326 385.743 143.534 385.738C142.74 385.739 141.92 385.917 141.075 386.272C140.223 386.631 139.418 387.176 138.663 387.909L136.775 392.66C136.436 393.513 136.227 394.34 136.147 395.141C136.062 395.94 136.096 396.661 136.248 397.302C136.392 397.947 136.628 398.538 136.957 399.075C137.284 399.618 137.679 400.079 138.142 400.456C138.597 400.838 139.107 401.14 139.67 401.364C140.819 401.82 141.952 401.925 143.07 401.678C144.186 401.437 145.202 400.869 146.119 399.975C147.037 399.08 147.775 397.928 148.336 396.517ZM150.911 396.959C150.547 397.873 150.067 398.709 149.469 399.466C148.866 400.22 148.194 400.847 147.453 401.347C146.704 401.85 145.915 402.237 145.084 402.508C144.246 402.781 143.385 402.908 142.503 402.886C141.615 402.863 140.758 402.687 139.933 402.359C139.057 402.011 138.286 401.54 137.618 400.946C136.951 400.351 136.427 399.63 136.047 398.782C135.66 397.937 135.488 397.036 135.533 396.079L135.555 395.729L131.844 405.072C131.622 405.63 131.779 406.015 132.314 406.227L133.653 406.759L133.559 406.993L131.954 406.355C131.652 406.236 131.353 406.146 131.054 406.085C130.753 406.03 130.459 406.007 130.171 406.015C129.876 406.027 129.616 406.105 129.391 406.248C129.159 406.394 128.988 406.604 128.88 406.877L128.84 406.978L128.606 406.885L137.697 384.001C137.828 383.672 137.851 383.403 137.766 383.195C137.678 382.992 137.523 382.847 137.3 382.758C137.072 382.667 136.849 382.676 136.632 382.783C136.407 382.894 136.234 383.103 136.112 383.409L135.939 383.844L135.671 383.738L135.844 383.303C136.037 382.818 136.371 382.473 136.846 382.268C137.314 382.066 137.79 382.062 138.275 382.254C138.693 382.421 138.993 382.723 139.173 383.163C139.348 383.601 139.355 384.052 139.196 384.518L138.213 387.382L138.289 387.412C139.489 386.21 140.79 385.429 142.192 385.07C143.589 384.708 145.073 384.839 146.645 385.464C148.145 386.06 149.337 386.937 150.22 388.094C151.095 389.256 151.595 390.604 151.722 392.139C151.848 393.674 151.577 395.28 150.911 396.959Z" fill="black"/>
<path d="M126.057 386.481C125.578 387.334 124.981 388.082 124.267 388.727C123.545 389.374 122.758 389.881 121.904 390.248C121.051 390.615 120.162 390.855 119.238 390.969C118.31 391.087 117.368 391.049 116.41 390.855C115.45 390.666 114.538 390.329 113.675 389.843C111.834 388.808 110.627 387.503 110.054 385.927C109.477 384.357 109.638 382.775 110.535 381.18C110.72 380.85 110.951 380.629 111.228 380.516C111.497 380.406 111.764 380.425 112.031 380.576L122.88 386.677C123.227 386.218 123.567 385.694 123.9 385.103C124.461 384.104 124.839 383.084 125.032 382.043C125.225 381.002 125.237 380.014 125.068 379.079C124.89 378.146 124.515 377.278 123.941 376.473C123.363 375.666 122.613 375.003 121.693 374.486C120.631 373.889 119.499 373.521 118.297 373.381C117.092 373.248 115.95 373.424 114.87 373.912L114.653 373.418C115.88 372.876 117.186 372.653 118.57 372.75C119.946 372.849 121.316 373.283 122.681 374.05C123.842 374.703 124.805 375.5 125.571 376.44C126.328 377.382 126.854 378.394 127.148 379.474C127.436 380.552 127.492 381.695 127.315 382.904C127.138 384.112 126.719 385.305 126.057 386.481ZM122.537 387.104L113.386 382.205C113.256 382.132 113.129 382.112 113.006 382.146C112.876 382.183 112.768 382.277 112.682 382.429C111.868 383.877 111.595 385.231 111.864 386.491C112.125 387.753 112.865 388.727 114.083 389.412C115.485 390.2 116.937 390.384 118.44 389.963C119.941 389.547 121.306 388.594 122.537 387.104Z" fill="black"/>
<path d="M107.192 367.455C106.867 367.23 106.68 366.947 106.631 366.606C106.579 366.271 106.671 365.933 106.906 365.593C107.136 365.262 107.414 365.061 107.741 364.989C108.065 364.921 108.395 365.004 108.73 365.236C109.061 365.465 109.264 365.752 109.339 366.096C109.409 366.437 109.328 366.775 109.096 367.11C108.867 367.441 108.577 367.638 108.226 367.701C107.872 367.77 107.527 367.688 107.192 367.455Z" fill="black"/>
<path d="M83.9339 376.661C83.6196 376.41 83.4397 376.121 83.3943 375.793C83.3441 375.461 83.4463 375.136 83.7007 374.817C83.9514 374.503 84.251 374.32 84.5995 374.268C84.9442 374.22 85.2761 374.324 85.5951 374.578C85.9093 374.829 86.0887 375.133 86.1333 375.491C86.1732 375.845 86.0659 376.182 85.8115 376.501C85.5645 376.81 85.272 376.98 84.9337 377.009C84.5908 377.035 84.2575 376.919 83.9339 376.661ZM89.4646 371.632C89.2625 371.885 89.1701 372.146 89.1874 372.413C89.1999 372.676 89.3211 372.899 89.551 373.083L90.4234 373.778L90.2438 374.004L87.0636 371.467C86.9604 371.385 86.9045 371.305 86.896 371.23C86.8875 371.154 86.9243 371.064 87.0067 370.961L98.8819 356.073C99.8173 354.9 100.926 354.223 102.207 354.04C103.484 353.854 104.66 354.189 105.734 355.045C106.639 355.768 107.153 356.615 107.275 357.587C107.402 358.564 107.114 359.493 106.411 360.374L106.214 360.217C106.82 359.457 107.046 358.644 106.893 357.778C106.74 356.911 106.242 356.141 105.397 355.468C104.792 354.985 104.166 354.827 103.519 354.994C102.867 355.157 102.215 355.647 101.564 356.463L89.4646 371.632Z" fill="black"/>
<path d="M86.2364 346.918C86.6684 347.335 87.0649 347.788 87.426 348.278C87.7828 348.764 88.0985 349.21 88.3733 349.617C88.6437 350.019 88.8869 350.324 89.1028 350.533C89.3015 350.724 89.5937 350.923 89.9793 351.128L85.1658 356.638L84.7771 356.263L86.1486 354.685C86.6806 354.073 87.0678 353.43 87.3101 352.755C87.544 352.08 87.636 351.423 87.5861 350.783C87.5278 350.143 87.3554 349.527 87.0687 348.934C86.7736 348.341 86.3713 347.799 85.8616 347.307C84.9028 346.383 83.8651 345.907 82.7486 345.881C81.6321 345.854 80.6491 346.282 79.7995 347.163C79.5829 347.388 79.4198 347.634 79.3101 347.904C79.192 348.173 79.1316 348.469 79.129 348.792C79.1264 349.114 79.1469 349.426 79.1905 349.726C79.2342 350.027 79.3255 350.377 79.4643 350.778C79.599 351.183 79.7306 351.539 79.8593 351.846C79.9794 352.154 80.1391 352.533 80.3382 352.983C80.4976 353.345 80.626 353.64 80.7235 353.868C80.8167 354.091 80.9344 354.384 81.0768 354.746C81.215 355.113 81.3225 355.42 81.3992 355.669C81.4715 355.914 81.5489 356.205 81.6315 356.543C81.714 356.881 81.7639 357.175 81.7812 357.425C81.7943 357.68 81.7952 357.96 81.7837 358.266C81.7723 358.571 81.7264 358.848 81.6461 359.096C81.5657 359.343 81.4557 359.595 81.3162 359.853C81.1722 360.106 80.9941 360.342 80.7817 360.562C80.1236 361.245 79.3652 361.655 78.5063 361.794C77.639 361.933 76.7584 361.813 75.8647 361.435C74.9668 361.061 74.0967 360.468 73.2545 359.656C72.6671 359.089 72.1363 358.486 71.6621 357.845C71.1879 357.204 70.8947 356.83 70.7824 356.722C70.5534 356.501 70.2783 356.302 69.9568 356.126L74.0725 351.443L74.4612 351.817L73.6634 352.748C73.3643 353.102 73.1081 353.48 72.8948 353.883C72.6815 354.285 72.526 354.719 72.4284 355.183C72.3222 355.648 72.2882 356.107 72.3261 356.56C72.3556 357.014 72.4828 357.474 72.7077 357.941C72.9284 358.412 73.244 358.845 73.6543 359.241C74.5483 360.103 75.4375 360.581 76.3219 360.675C77.1977 360.77 78.0334 360.405 78.8288 359.58C78.9579 359.446 79.0655 359.295 79.1516 359.128C79.2377 358.961 79.3025 358.794 79.3462 358.628C79.3857 358.466 79.4013 358.277 79.3931 358.061C79.385 357.845 79.3728 357.645 79.3568 357.463C79.3323 357.281 79.2838 357.064 79.2113 356.81C79.1344 356.553 79.0667 356.329 79.0081 356.139C78.9453 355.954 78.8561 355.718 78.7406 355.431C78.6251 355.145 78.5274 354.909 78.4477 354.724C78.3638 354.543 78.2532 354.299 78.1161 353.991C77.9082 353.524 77.7397 353.128 77.6107 352.804C77.4733 352.48 77.3261 352.084 77.169 351.615C77.0035 351.147 76.8857 350.738 76.8157 350.387C76.7457 350.036 76.6961 349.642 76.6669 349.206C76.6336 348.774 76.6541 348.385 76.7284 348.04C76.7984 347.691 76.9235 347.332 77.1035 346.964C77.2793 346.6 77.5172 346.262 77.817 345.951C78.879 344.85 80.1882 344.387 81.7444 344.562C83.2922 344.738 84.7895 345.523 86.2364 346.918Z" fill="black"/>
<path d="M55.3667 330.751C55.4416 330.17 55.7096 329.707 56.1707 329.362C56.6319 329.017 57.1564 328.887 57.7443 328.971C58.3322 329.056 58.7988 329.328 59.144 329.79C59.4892 330.251 59.6195 330.775 59.535 331.363C59.4505 331.951 59.1776 332.418 58.7165 332.763C58.2554 333.108 57.7357 333.235 57.1574 333.143C56.5791 333.051 56.1173 332.775 55.7721 332.314C55.4269 331.853 55.2918 331.332 55.3667 330.751Z" fill="black"/>
<path d="M43.4527 299.892L43.6352 300.243L42.1655 301.006C41.6703 301.264 41.276 301.539 40.9826 301.834C40.6812 302.125 40.4748 302.405 40.3635 302.672C40.2469 302.942 40.2018 303.24 40.2282 303.564C40.2493 303.891 40.3089 304.188 40.4069 304.455C40.5021 304.716 40.6382 305.018 40.8152 305.358L41.3793 306.445L49.4305 302.264C49.8511 302.045 50.1374 301.816 50.2894 301.574C50.4333 301.331 50.4457 301.094 50.3268 300.865L48.3193 296.999C47.6612 295.732 46.8816 294.94 45.9804 294.624C45.0712 294.305 43.9672 294.412 42.6684 294.945L40.4602 295.848L40.2446 295.432L46.3696 292.698C46.6285 292.78 46.8851 293.066 47.1395 293.556L53.527 305.856L53.2714 305.989L52.7902 305.062C52.7018 304.892 52.6232 304.754 52.5544 304.647C52.4776 304.538 52.385 304.445 52.2764 304.366C52.1625 304.29 52.0558 304.24 51.9561 304.218C51.8537 304.19 51.7088 304.191 51.5214 304.22C51.334 304.25 51.1469 304.3 50.9602 304.37C50.7706 304.434 50.5199 304.538 50.2081 304.679C49.8882 304.818 49.5645 304.969 49.2369 305.133C48.9093 305.296 48.4979 305.506 48.0027 305.764L37.4915 311.222C36.9962 311.479 36.5876 311.695 36.2656 311.869C35.9435 312.043 35.6363 312.219 35.3438 312.398C35.0433 312.574 34.812 312.722 34.6501 312.839C34.4855 312.952 34.3371 313.076 34.205 313.213C34.0729 313.349 33.9889 313.467 33.9528 313.567C33.914 313.661 33.8956 313.775 33.8977 313.91C33.8944 314.047 33.9179 314.176 33.9681 314.299C34.0101 314.419 34.0754 314.564 34.1639 314.735L34.6451 315.661L34.3895 315.794L28.6822 304.804C28.4168 304.292 28.3199 303.924 28.3915 303.697L34.1669 300.211L34.4158 300.69L32.6291 301.78C31.2998 302.592 30.5083 303.483 30.2548 304.453C29.996 305.426 30.2067 306.567 30.8869 307.877L32.828 311.615L32.86 311.599C33.0443 311.016 33.4027 310.587 33.9352 310.31L40.9001 306.694L40.336 305.607C40.2115 305.368 40.097 305.16 39.9923 304.985C39.8796 304.807 39.7453 304.626 39.5895 304.443C39.431 304.255 39.2731 304.107 39.1158 304C38.9585 303.892 38.7719 303.8 38.5561 303.722C38.3349 303.648 38.1049 303.615 37.8662 303.624C37.6222 303.636 37.3452 303.689 37.0354 303.782C36.7227 303.87 36.388 304.007 36.0313 304.192L35.1047 304.673L34.9222 304.322L43.4527 299.892Z" fill="black"/>
<path d="M43.9014 286.649L43.6319 286.75L43.5684 286.582C43.2018 285.611 42.1231 284.928 40.3322 284.533L37.7355 283.974L33.2634 283.237L28.577 288.662C27.9066 289.434 27.4827 290.053 27.3053 290.517C27.1258 290.976 27.1124 291.408 27.2649 291.812L27.4175 292.216L27.148 292.318L25.2666 287.333L25.536 287.231L26.0954 288.713L26.129 288.701C26.1222 288.479 26.2202 288.169 26.423 287.772C26.6258 287.375 26.8663 287.018 27.1444 286.701L31.1249 282.159L28.014 281.563L25.5737 281.214C25.0482 281.131 24.5862 281.164 24.1877 281.314C23.6712 281.509 23.5656 282.011 23.8707 282.819L24.0741 283.358L23.8046 283.46L21.9359 278.509L22.2053 278.407L22.3324 278.744C22.4871 279.154 22.7774 279.464 23.2035 279.675C23.6239 279.889 24.3726 280.122 25.4497 280.376L28.0382 281.015L31.5494 281.653L36.9253 275.506C37.6034 274.737 38.0319 274.139 38.2107 273.713C38.3819 273.283 38.3795 272.834 38.2037 272.369L38.0257 271.897L38.2951 271.795L40.8376 278.531L40.5682 278.633L40.3521 278.061C40.1508 277.527 39.9544 277.169 39.763 276.984C39.5695 276.794 39.3549 276.744 39.1191 276.833C39.0068 276.875 38.6143 277.229 37.9416 277.893L33.7006 282.764L37.7596 283.426L40.1873 283.741C40.6874 283.809 41.1452 283.764 41.5606 283.607C42.077 283.412 42.1869 282.922 41.8903 282.136L41.636 281.462L41.9055 281.361L43.9014 286.649Z" fill="black"/>
<path d="M20.2051 266.934C19.8604 267.014 19.6188 267.154 19.4804 267.353C19.3406 267.546 19.2973 267.756 19.3505 267.984C19.4051 268.218 19.5479 268.394 19.7789 268.512C20.0041 268.632 20.2744 268.655 20.59 268.582L21.6767 268.328L21.7422 268.608L20.6555 268.862C20.0829 268.996 19.5915 268.91 19.1815 268.606C18.7701 268.295 18.5009 267.868 18.374 267.325C18.2594 266.834 18.2955 266.382 18.4824 265.968C18.6693 265.555 19.0081 265.291 19.4989 265.176L20.7609 264.882C21.0765 264.808 21.6365 264.686 22.441 264.517C23.2384 264.343 23.7004 264.251 23.8272 264.239L23.7781 264.029C23.2111 264.081 22.5419 264.065 21.7704 263.98C20.8199 263.894 19.9577 263.606 19.1838 263.115C18.4027 262.62 17.7683 262.001 17.2806 261.258C16.793 260.516 16.442 259.686 16.2278 258.769C15.9862 257.734 15.9296 256.74 16.058 255.786C16.1849 254.826 16.4595 253.97 16.8816 253.218C17.3037 252.467 17.8433 251.783 18.5005 251.167C19.1577 250.552 19.8883 250.039 20.6922 249.63C21.4903 249.221 22.3363 248.913 23.2302 248.704C24.1242 248.495 25.0222 248.396 25.9244 248.408C26.8207 248.42 27.6969 248.557 28.553 248.82C29.409 249.082 30.1928 249.456 30.9042 249.943C31.6097 250.432 32.2321 251.078 32.7712 251.882C33.303 252.682 33.6898 253.599 33.9313 254.634C34.1455 255.551 34.1978 256.448 34.0882 257.323C33.9785 258.199 33.6862 259.032 33.2111 259.82C32.7347 260.603 32.0879 261.25 31.2707 261.762L30.7683 262.064L36.8506 260.643C37.5693 260.475 38.1463 260.334 38.5818 260.22C39.0231 260.105 39.4201 259.985 39.7728 259.859C40.13 259.726 40.3894 259.61 40.5511 259.511C40.7172 259.404 40.8466 259.272 40.9392 259.115C41.0306 258.952 41.0731 258.791 41.0668 258.633C41.0605 258.474 41.0281 258.269 40.9694 258.018L40.7238 256.966L40.9692 256.909L42.7132 264.376L42.4678 264.433L42.2303 263.416C42.1716 263.165 42.11 262.967 42.0453 262.822C41.9806 262.677 41.8696 262.558 41.7124 262.465C41.5597 262.365 41.3889 262.307 41.1999 262.289C41.0169 262.27 40.7336 262.284 40.3501 262.33C39.9652 262.371 39.5559 262.439 39.1222 262.534C38.693 262.622 38.1132 262.751 37.3828 262.922L20.2051 266.934ZM27.771 262.764C28.6649 262.555 29.4635 262.255 30.1667 261.862C30.8699 261.47 31.4444 261.028 31.8901 260.536C32.33 260.045 32.6796 259.51 32.9389 258.932C33.1969 258.348 33.3486 257.758 33.3943 257.162C33.4399 256.566 33.3938 255.973 33.256 255.383C33.0704 254.588 32.7684 253.889 32.3499 253.284C31.9314 252.679 31.4368 252.197 30.866 251.838C30.2939 251.472 29.6541 251.199 28.9467 251.02C28.2379 250.834 27.497 250.748 26.7239 250.762C25.9451 250.778 25.1496 250.881 24.3374 251.07C23.6597 251.229 22.9955 251.445 22.3451 251.72C21.6932 251.99 21.0712 252.308 20.479 252.674C19.8868 253.04 19.3563 253.46 18.8876 253.933C18.4131 254.407 18.0196 254.912 17.7071 255.447C17.3946 255.982 17.189 256.566 17.0904 257.199C16.986 257.834 17.0109 258.481 17.1651 259.141C17.3029 259.731 17.5243 260.283 17.8292 260.797C18.1341 261.312 18.5315 261.773 19.0215 262.183C19.51 262.586 20.0631 262.91 20.6808 263.154C21.2926 263.399 22.0006 263.542 22.8049 263.582C23.6091 263.622 24.4581 263.538 25.3521 263.329L27.771 262.764Z" fill="black"/>
<path d="M30.8 239.656L30.5136 239.687L30.4031 238.648C30.3828 238.457 30.36 238.3 30.3347 238.176C30.3029 238.047 30.2508 237.925 30.1784 237.812C30.1001 237.7 30.0186 237.615 29.9341 237.558C29.8489 237.495 29.7136 237.443 29.5283 237.402C29.343 237.361 29.1506 237.34 28.9511 237.337C28.7511 237.328 28.4801 237.333 28.1381 237.351C27.7895 237.364 27.4329 237.387 27.0683 237.419C26.7038 237.452 26.244 237.498 25.6892 237.557L14.3055 238.769C13.9833 238.803 13.7333 238.92 13.5554 239.12C13.377 239.314 13.3033 239.557 13.3344 239.85L13.4525 240.959L13.1661 240.99L12.7813 237.374C12.7604 237.177 12.7875 237.036 12.8628 236.949C12.9315 236.857 13.0642 236.801 13.2611 236.78L15.4806 236.544C15.9937 236.489 16.5272 236.457 17.0812 236.446C17.6292 236.436 18.0115 236.456 18.2279 236.505L18.2995 236.497L18.2728 236.247C16.3993 236.048 14.9045 235.525 13.7887 234.678C12.6662 233.826 12.0361 232.753 11.8983 231.458C11.7179 229.764 12.1886 228.857 13.3102 228.738C13.7458 228.691 14.1339 228.795 14.4746 229.048C14.8094 229.302 14.9984 229.632 15.0416 230.038C15.0866 230.461 14.9762 230.841 14.7103 231.177C14.4378 231.508 14.0897 231.696 13.6661 231.741C13.5169 231.757 13.3464 231.742 13.1544 231.696C12.9619 231.644 12.8095 231.573 12.6972 231.482L12.6614 231.486C12.7669 232.476 13.2095 233.319 13.9895 234.014C14.7629 234.705 15.8075 235.194 17.1234 235.482C18.4387 235.764 19.9227 235.818 21.5753 235.642L25.4773 235.226C26.2112 235.148 26.8012 235.08 27.2474 235.02C27.6936 234.96 28.1024 234.89 28.4738 234.808C28.8387 234.721 29.1074 234.638 29.2801 234.559C29.4461 234.475 29.5848 234.361 29.6961 234.216C29.8008 234.066 29.8598 233.912 29.8732 233.754C29.8865 233.596 29.8795 233.388 29.8522 233.132L29.6502 231.234L29.9008 231.208L30.8 239.656Z" fill="black"/>
<path d="M20.0825 220.157C19.1046 220.148 18.1611 219.986 17.252 219.672C16.3369 219.351 15.513 218.906 14.7803 218.335C14.0476 217.764 13.4088 217.101 12.8638 216.346C12.3128 215.591 11.8917 214.747 11.6004 213.814C11.3031 212.881 11.159 211.92 11.1683 210.93C11.188 208.818 11.7498 207.131 12.8536 205.869C13.9514 204.607 15.4153 203.985 17.2452 204.002C17.6232 204.006 17.9283 204.101 18.1606 204.29C18.3869 204.472 18.4986 204.716 18.4957 205.022L18.3796 217.468C18.9488 217.552 19.5724 217.596 20.2504 217.603C21.3963 217.613 22.4719 217.452 23.477 217.12C24.4822 216.787 25.3536 216.321 26.0912 215.722C26.8229 215.117 27.4029 214.369 27.8312 213.479C28.2596 212.583 28.4787 211.607 28.4886 210.551C28.4999 209.333 28.2768 208.164 27.8193 207.044C27.3557 205.923 26.6502 205.008 25.7028 204.297L26.0308 203.868C27.0973 204.682 27.9216 205.719 28.5039 206.978C29.0802 208.232 29.3611 209.641 29.3465 211.207C29.3341 212.539 29.1006 213.767 28.6461 214.891C28.1856 216.009 27.5527 216.957 26.7474 217.735C25.9422 218.508 24.9676 219.108 23.8235 219.535C22.6795 219.962 21.4325 220.17 20.0825 220.157ZM17.8404 217.373L17.7213 206.995C17.7227 206.845 17.6788 206.724 17.5897 206.633C17.4946 206.536 17.36 206.487 17.186 206.486C15.5241 206.47 14.2062 206.884 13.2323 207.727C12.2524 208.564 11.756 209.681 11.7429 211.079C11.7279 212.687 12.2672 214.048 13.3609 215.162C14.4485 216.276 15.9417 217.013 17.8404 217.373Z" fill="black"/>
<path d="M30.7992 190.457C30.7214 191.052 30.593 191.64 30.414 192.222C30.2359 192.798 30.0651 193.317 29.9017 193.779C29.7391 194.236 29.6383 194.613 29.5994 194.911C29.5636 195.185 29.5779 195.537 29.6425 195.969L22.3495 195.378L22.4195 194.843L24.5039 195.007C25.3125 195.07 26.0601 194.999 26.7467 194.792C27.4282 194.578 28.0112 194.261 28.4959 193.841C28.9753 193.413 29.3682 192.908 29.6744 192.325C29.9755 191.735 30.1719 191.089 30.2638 190.387C30.4365 189.066 30.2014 187.949 29.5584 187.036C28.9154 186.123 27.9871 185.587 26.7734 185.428C26.464 185.388 26.1685 185.404 25.8868 185.476C25.5999 185.541 25.326 185.669 25.0652 185.858C24.8044 186.048 24.5662 186.25 24.3506 186.464C24.1351 186.678 23.9076 186.959 23.6682 187.309C23.4228 187.659 23.2149 187.976 23.0443 188.263C22.8685 188.542 22.6589 188.896 22.4153 189.324C22.2191 189.667 22.0586 189.946 21.9339 190.16C21.8099 190.367 21.6446 190.636 21.4381 190.966C21.2256 191.295 21.0421 191.565 20.8876 191.774C20.7339 191.978 20.5457 192.214 20.3232 192.481C20.1006 192.749 19.894 192.964 19.7033 193.126C19.5066 193.288 19.282 193.455 19.0295 193.628C18.7769 193.801 18.5273 193.929 18.2805 194.011C18.0337 194.094 17.7654 194.156 17.4756 194.196C17.1867 194.231 16.8905 194.229 16.5871 194.189C15.6471 194.066 14.8659 193.701 14.2435 193.093C13.6159 192.478 13.1883 191.699 12.9608 190.756C12.7272 189.811 12.6864 188.759 12.8381 187.599C12.944 186.79 13.1133 186.004 13.3461 185.242C13.5789 184.48 13.7055 184.021 13.7257 183.867C13.7669 183.551 13.7629 183.212 13.7137 182.849L19.9264 183.371L19.8564 183.906L18.6334 183.819C18.1714 183.789 17.7151 183.808 17.2644 183.876C16.8138 183.944 16.3728 184.077 15.9415 184.275C15.5051 184.466 15.1159 184.711 14.7741 185.011C14.4271 185.305 14.1329 185.681 13.8913 186.139C13.6439 186.597 13.4832 187.109 13.4093 187.674C13.2482 188.905 13.3928 189.905 13.8431 190.671C14.2883 191.432 15.079 191.886 16.2154 192.035C16.3998 192.059 16.5848 192.056 16.7702 192.026C16.9557 191.995 17.1283 191.948 17.2879 191.885C17.4416 191.82 17.6029 191.72 17.7719 191.585C17.9408 191.45 18.0938 191.321 18.2306 191.2C18.3624 191.072 18.5084 190.904 18.6689 190.695C18.8301 190.48 18.9696 190.292 19.0874 190.132C19.1992 189.971 19.3359 189.759 19.4974 189.496C19.6589 189.233 19.7904 189.014 19.8918 188.84C19.9873 188.664 20.1178 188.43 20.2832 188.137C20.5351 187.692 20.753 187.321 20.937 187.025C21.1159 186.721 21.3468 186.367 21.6296 185.963C21.9073 185.551 22.1664 185.213 22.4068 184.948C22.6472 184.683 22.9342 184.409 23.2677 184.126C23.5953 183.842 23.9199 183.627 24.2415 183.481C24.5639 183.33 24.9266 183.217 25.3296 183.143C25.7267 183.068 26.1395 183.058 26.5678 183.114C28.0849 183.312 29.2358 184.089 30.0207 185.445C30.8004 186.793 31.0599 188.464 30.7992 190.457Z" fill="black"/>
<path d="M34.5716 170.033C34.4274 170.616 34.2337 171.186 33.9905 171.744C33.7487 172.296 33.5206 172.793 33.3062 173.234C33.0933 173.67 32.9507 174.033 32.8786 174.324C32.8123 174.592 32.7869 174.944 32.8024 175.381L25.6221 173.974L25.7519 173.449L27.8047 173.846C28.601 174 29.3519 174.013 30.0574 173.885C30.7585 173.75 31.3735 173.5 31.9024 173.137C32.4269 172.766 32.8741 172.308 33.244 171.763C33.6095 171.211 33.8773 170.591 34.0475 169.903C34.3677 168.611 34.2596 167.474 33.7234 166.495C33.1871 165.515 32.3249 164.878 31.1368 164.584C30.834 164.509 30.5385 164.491 30.2505 164.531C29.958 164.564 29.6716 164.66 29.3911 164.819C29.1106 164.978 28.8512 165.152 28.613 165.34C28.3747 165.529 28.117 165.783 27.8398 166.104C27.5567 166.423 27.3144 166.716 27.1127 166.981C26.9066 167.239 26.6585 167.567 26.3683 167.965C26.1348 168.284 25.944 168.543 25.796 168.741C25.6494 168.933 25.455 169.182 25.2127 169.487C24.9645 169.79 24.7518 170.037 24.5747 170.228C24.3991 170.413 24.1856 170.626 23.9344 170.867C23.6832 171.108 23.4537 171.298 23.2459 171.438C23.0323 171.577 22.7903 171.718 22.52 171.861C22.2496 172.004 21.9872 172.103 21.7326 172.157C21.4781 172.212 21.2046 172.243 20.9121 172.251C20.6211 172.253 20.327 172.217 20.03 172.144C19.1098 171.916 18.3746 171.465 17.8245 170.791C17.27 170.11 16.9327 169.288 16.8127 168.324C16.6869 167.36 16.7646 166.31 17.0458 165.174C17.242 164.382 17.4986 163.62 17.8156 162.889C18.1327 162.158 18.31 161.717 18.3475 161.565C18.4239 161.257 18.4581 160.919 18.45 160.552L24.5646 161.77L24.4348 162.294L23.2294 162.069C22.7737 161.988 22.3182 161.955 21.8627 161.972C21.4073 161.989 20.9542 162.072 20.5034 162.22C20.0482 162.36 19.6339 162.561 19.2605 162.82C18.8827 163.073 18.548 163.414 18.2565 163.842C17.9591 164.269 17.7419 164.759 17.6049 165.313C17.3064 166.518 17.3377 167.527 17.699 168.34C18.0559 169.145 18.7905 169.686 19.9029 169.961C20.0834 170.006 20.2676 170.024 20.4553 170.015C20.643 170.005 20.8197 169.978 20.9855 169.933C21.1455 169.886 21.317 169.805 21.5001 169.689C21.6832 169.574 21.8496 169.464 21.9992 169.358C22.1445 169.246 22.3086 169.095 22.4916 168.906C22.6759 168.71 22.8356 168.539 22.9706 168.394C23.0998 168.246 23.2595 168.051 23.4495 167.808C23.6396 167.564 23.7949 167.362 23.9153 167.2C24.0299 167.036 24.1859 166.819 24.3832 166.546C24.6835 166.132 24.9417 165.788 25.158 165.514C25.3698 165.233 25.639 164.907 25.9656 164.536C26.2878 164.159 26.5833 163.852 26.852 163.616C27.1206 163.379 27.4366 163.139 27.7999 162.895C28.1573 162.65 28.504 162.473 28.8399 162.365C29.1773 162.25 29.5504 162.179 29.9592 162.15C30.3622 162.12 30.7734 162.157 31.1928 162.261C32.6779 162.629 33.7342 163.53 34.3617 164.965C34.9848 166.393 35.0548 168.082 34.5716 170.033Z" fill="black"/>
<path d="M36.6613 153.361C36.7891 152.986 37.01 152.729 37.324 152.589C37.6324 152.447 37.9825 152.442 38.3743 152.576C38.7548 152.706 39.0247 152.918 39.184 153.213C39.3375 153.507 39.3485 153.846 39.2168 154.232C39.0871 154.613 38.867 154.887 38.5566 155.053C38.2481 155.214 37.9008 155.229 37.5146 155.097C37.1341 154.968 36.8653 154.743 36.7081 154.423C36.5452 154.101 36.5296 153.747 36.6613 153.361Z" fill="black"/>
<path d="M21.4338 133.516C21.5887 133.145 21.8176 132.893 22.1205 132.759C22.4257 132.62 22.7666 132.629 23.143 132.787C23.514 132.942 23.7722 133.18 23.9178 133.5C24.0578 133.819 24.0492 134.167 23.892 134.543C23.737 134.914 23.4936 135.17 23.1616 135.311C22.8319 135.446 22.4789 135.435 22.1024 135.278C21.737 135.125 21.4937 134.891 21.3726 134.573C21.2538 134.251 21.2742 133.898 21.4338 133.516ZM27.7857 137.457C27.4867 137.332 27.2112 137.315 26.9591 137.404C26.7094 137.489 26.5278 137.666 26.4145 137.938L25.9844 138.967L25.7186 138.856L27.2865 135.103C27.3374 134.981 27.3982 134.905 27.4688 134.876C27.5395 134.847 27.6357 134.858 27.7575 134.909L45.3301 142.249C46.7142 142.828 47.6697 143.708 48.1967 144.89C48.7259 146.067 48.7258 147.29 48.1962 148.557C47.7499 149.626 47.0758 150.352 46.1741 150.736C45.2701 151.126 44.2976 151.104 43.2568 150.669L43.3539 150.436C44.2508 150.811 45.095 150.806 45.8864 150.421C46.6778 150.036 47.2817 149.346 47.6979 148.349C47.9962 147.635 47.9765 146.99 47.6387 146.413C47.3032 145.831 46.6538 145.338 45.6905 144.936L27.7857 137.457Z" fill="black"/>
<path d="M50.6684 127.579C50.3863 128.109 50.0591 128.614 49.687 129.096C49.3176 129.572 48.9751 129.998 48.6593 130.374C48.3464 130.744 48.1194 131.062 47.9783 131.326C47.8486 131.57 47.7379 131.905 47.6463 132.332L41.0274 129.213L41.2814 128.737L43.1749 129.623C43.9095 129.967 44.6345 130.163 45.3499 130.211C46.0629 130.251 46.7202 130.16 47.3219 129.936C47.9211 129.705 48.4666 129.37 48.9584 128.932C49.4478 128.486 49.8589 127.95 50.1919 127.325C50.8183 126.15 50.9911 125.022 50.7105 123.941C50.4298 122.86 49.7494 122.031 48.6692 121.456C48.3938 121.309 48.1116 121.22 47.8225 121.188C47.531 121.148 47.2298 121.171 46.9189 121.257C46.608 121.343 46.314 121.448 46.037 121.573C45.76 121.697 45.4479 121.881 45.1007 122.124C44.7482 122.365 44.4417 122.589 44.1813 122.797C43.9185 122.997 43.5977 123.254 43.2192 123.569C42.9147 123.822 42.6664 124.026 42.4745 124.182C42.2854 124.333 42.0361 124.526 41.7267 124.762C41.4119 124.996 41.1454 125.184 40.9269 125.326C40.7113 125.462 40.4523 125.617 40.1499 125.789C39.8475 125.961 39.5785 126.089 39.3427 126.174C39.1017 126.257 38.8326 126.334 38.5355 126.407C38.2383 126.48 37.9597 126.511 37.6996 126.502C37.4394 126.493 37.1666 126.456 36.8811 126.392C36.5983 126.323 36.3219 126.217 36.0519 126.073C35.2152 125.627 34.6125 125.01 34.2438 124.222C33.8725 123.426 33.7464 122.546 33.8653 121.583C33.9789 120.617 34.3108 119.618 34.861 118.585C35.2447 117.865 35.6797 117.189 36.1658 116.558C36.6519 115.926 36.9316 115.541 37.005 115.404C37.1545 115.123 37.2702 114.804 37.3519 114.446L42.9838 117.121L42.7298 117.598L41.6157 117.085C41.1939 116.895 40.7601 116.752 40.3143 116.657C39.8685 116.562 39.4089 116.532 38.9357 116.565C38.4599 116.59 38.0092 116.683 37.5837 116.844C37.1556 116.997 36.7479 117.245 36.3605 117.589C35.9678 117.931 35.6374 118.353 35.3694 118.856C34.7853 119.952 34.5692 120.938 34.7209 121.815C34.8702 122.683 35.4505 123.386 36.4619 123.925C36.626 124.013 36.8002 124.075 36.9845 124.112C37.1687 124.149 37.3468 124.166 37.5187 124.162C37.6853 124.156 37.8714 124.119 38.0772 124.052C38.2829 123.985 38.4712 123.918 38.642 123.853C38.8103 123.78 39.0063 123.673 39.23 123.534C39.4566 123.39 39.6531 123.263 39.8196 123.155C39.9809 123.044 40.1834 122.893 40.4272 122.704C40.671 122.514 40.8711 122.355 41.0274 122.228C41.1784 122.098 41.3829 121.924 41.6408 121.708C42.0331 121.38 42.3676 121.11 42.6443 120.897C42.9184 120.676 43.2591 120.426 43.6663 120.146C44.071 119.859 44.4325 119.633 44.7508 119.47C45.0691 119.306 45.4341 119.151 45.8459 119.003C46.2525 118.852 46.6319 118.766 46.9841 118.743C47.3391 118.714 47.7184 118.736 48.1218 118.808C48.52 118.878 48.9097 119.014 49.2909 119.217C50.6412 119.937 51.4453 121.069 51.7031 122.613C51.9586 124.15 51.6137 125.805 50.6684 127.579Z" fill="black"/>
<path d="M57.7562 93.4602C58.3352 93.3731 58.8539 93.5039 59.3123 93.8528C59.7706 94.2016 60.0397 94.6703 60.1196 95.2589C60.1994 95.8475 60.0649 96.3709 59.7161 96.8293C59.3672 97.2876 58.8985 97.5568 58.31 97.6366C57.7214 97.7165 57.1979 97.582 56.7396 97.2331C56.2812 96.8843 56.0169 96.4192 55.9466 95.8379C55.8763 95.2566 56.0155 94.7368 56.3644 94.2784C56.7132 93.82 57.1772 93.5473 57.7562 93.4602Z" fill="black"/>
<path d="M80.7825 84.8603L80.5905 84.6456L80.8051 84.4536C81.0287 84.2536 81.1979 84.0782 81.3125 83.9273C81.4271 83.7765 81.5008 83.5979 81.5336 83.3915C81.5708 83.1811 81.5507 82.9697 81.4733 82.7571C81.3964 82.5361 81.2483 82.2581 81.029 81.9229C80.8101 81.5793 80.5334 81.2069 80.1988 80.8059C79.8647 80.3963 79.4317 79.8942 78.8996 79.2994L69.3473 68.6202C69.1793 68.4324 69.0386 68.2886 68.9252 68.1888C68.8078 68.0845 68.6849 68.0012 68.5567 67.9388C68.4244 67.8719 68.2938 67.8519 68.1649 67.8787C68.0404 67.9015 67.9013 67.9575 67.7476 68.0467C67.5939 68.1359 67.4164 68.2705 67.2152 68.4505L66.598 69.0025L66.406 68.7878L69.5186 66.0037L86.27 72.8517C86.9185 73.1088 87.3228 73.3268 87.4828 73.5056L87.617 73.3856C87.557 73.3186 87.4685 73.1522 87.3516 72.8864C87.2351 72.6123 87.1429 72.3607 87.0749 72.1317L81.9955 54.8434L85.43 51.7713L85.622 51.9859L84.9512 52.586C84.7231 52.79 84.5531 52.9823 84.441 53.163C84.329 53.3438 84.2603 53.5099 84.2348 53.6615C84.2094 53.813 84.2403 53.9826 84.3276 54.1702C84.4109 54.3533 84.5098 54.5224 84.6244 54.6775C84.7434 54.8286 84.913 55.0271 85.133 55.2731L94.3013 65.523C94.8573 66.1446 95.3038 66.6347 95.6407 66.9934C95.9777 67.3521 96.3061 67.6742 96.6258 67.9598C96.9501 68.2413 97.2051 68.4318 97.3907 68.5314C97.5769 68.6225 97.7761 68.6697 97.9884 68.673C98.1966 68.6719 98.3821 68.6227 98.5447 68.5256C98.7034 68.4239 98.8989 68.2691 99.1315 68.0611L99.6145 67.6291L99.8065 67.8437L93.9034 73.1239L93.7114 72.9092L94.5164 72.1892C94.74 71.9892 94.9066 71.82 95.0163 71.6817C95.1305 71.5393 95.1994 71.3689 95.2232 71.1705C95.2475 70.9637 95.2242 70.7712 95.1534 70.593C95.0831 70.4064 94.9318 70.1472 94.6996 69.8156C94.4718 69.48 94.2084 69.136 93.9093 68.7836C93.6063 68.4268 93.1927 67.9555 92.6687 67.3697L84.2444 57.9516C83.7964 57.4507 83.5094 57.1118 83.3832 56.9348L83.2222 57.0788C83.2298 57.0962 83.2536 57.1634 83.2939 57.2804C83.3346 57.3889 83.3919 57.5429 83.4657 57.7425C83.5356 57.9376 83.6012 58.1325 83.6626 58.3271L88.9594 76.2904L89.0498 76.4994L88.9961 76.5474L88.7984 76.4344L71.4243 69.3223C71.2457 69.2486 71.0658 69.16 70.8846 69.0564C70.6994 68.9483 70.5599 68.8598 70.466 68.7909C70.3721 68.7219 70.3132 68.674 70.2892 68.6472L70.2087 68.7192C70.3546 68.8463 70.5875 69.0887 70.9075 69.4465L79.5478 79.106C80.0518 79.6695 80.4745 80.1286 80.816 80.4833C81.1574 80.838 81.4785 81.1385 81.7792 81.3847C82.0804 81.6224 82.3261 81.7891 82.5162 81.8847C82.7108 81.9762 82.9105 82.015 83.1152 82.0009C83.3245 81.9828 83.5081 81.9272 83.6663 81.834C83.8249 81.7323 84.0161 81.5815 84.2397 81.3815L84.9373 80.7575L85.1293 80.9721L80.7825 84.8603Z" fill="black"/>
<path d="M112.032 59.7751C111.969 59.4719 111.857 59.1975 111.695 58.9519C111.54 58.7163 111.342 58.5197 111.102 58.3618L98.3002 49.9802C98.0532 49.8123 97.8659 49.6914 97.7382 49.6174C97.6122 49.5352 97.4654 49.4486 97.2979 49.3578C97.127 49.2619 96.9917 49.2037 96.892 49.1832C96.7923 49.1626 96.6775 49.152 96.5477 49.1512C96.4179 49.1505 96.2938 49.1747 96.1753 49.224C96.0569 49.2732 95.9275 49.344 95.7872 49.4364L95.3963 49.6937L95.2379 49.4532L100.079 46.2662L100.237 46.5067L98.4634 47.6746L98.4832 47.7047C98.6065 47.6738 98.7744 47.6997 98.9869 47.7825C99.2012 47.857 99.3796 47.9371 99.5222 48.0228C99.6616 48.1034 99.8498 48.2202 100.087 48.373L110.173 54.9217C110.485 55.1332 110.776 55.4444 111.047 55.8553L111.086 55.9155L111.176 55.8561L109.058 45.8291L108.313 43.3885C108.227 43.0718 108.113 42.8057 107.971 42.5902C107.78 42.2995 107.542 42.1575 107.26 42.1642C106.978 42.1626 106.622 42.3036 106.191 42.5873L105.349 43.1416L105.191 42.901L109.551 40.0308L109.689 40.2413C109.349 40.4656 109.154 40.759 109.105 41.1215C109.057 41.484 109.1 42.0517 109.235 42.8247L109.698 45.6231L113.264 62.6279C113.502 63.7426 113.508 64.7661 113.281 65.6983C113.057 66.6356 112.592 67.3368 111.886 67.802C111.36 68.1484 110.759 68.2132 110.085 67.9962C109.419 67.781 108.873 67.3502 108.447 66.7037C109.002 66.6187 109.464 66.519 109.835 66.4047C110.208 66.2954 110.573 66.1236 110.928 65.8893C111.224 65.6947 111.479 65.4873 111.693 65.2672C111.911 65.0522 112.105 64.7954 112.274 64.4968C112.453 64.2 112.563 63.8545 112.605 63.4603C112.652 63.0629 112.626 62.6309 112.528 62.1643L112.032 59.7751Z" fill="black"/>
<path d="M121.435 45.196L121.901 44.9208L122.759 46.3831C123.201 47.1277 123.707 47.7392 124.278 48.2177C124.848 48.6962 125.442 49.0284 126.06 49.2142C126.675 49.3947 127.309 49.4518 127.96 49.3853C128.615 49.3108 129.261 49.1128 129.898 48.7915C131.104 48.1839 131.896 47.3415 132.273 46.2643C132.653 45.179 132.548 44.0497 131.957 42.8763C131.795 42.5548 131.595 42.2657 131.358 42.0088C131.124 41.7439 130.88 41.5206 130.627 41.339C130.38 41.1546 130.084 40.9946 129.74 40.8588C129.394 40.7177 129.069 40.606 128.765 40.5238C128.464 40.4336 128.103 40.3569 127.682 40.2938C127.266 40.2281 126.899 40.1809 126.583 40.1524C126.263 40.1186 125.873 40.0836 125.411 40.0475C125 40.0193 124.662 39.9949 124.397 39.9742C124.128 39.9483 123.794 39.9118 123.394 39.8647C122.991 39.8123 122.652 39.7584 122.375 39.7029C122.096 39.6421 121.774 39.5626 121.408 39.4645C121.043 39.3664 120.726 39.2574 120.457 39.1375C120.194 39.0149 119.911 38.8655 119.607 38.6894C119.3 38.5079 119.033 38.3102 118.804 38.0963C118.572 37.877 118.345 37.6255 118.121 37.3418C117.895 37.0527 117.697 36.7394 117.527 36.4018C116.873 35.1052 116.833 33.812 117.406 32.5222C117.984 31.2297 119.063 30.1851 120.644 29.3885C121.147 29.1347 121.785 28.8737 122.557 28.6056C123.329 28.3375 123.876 28.1224 124.197 27.9604C124.583 27.766 124.883 27.5879 125.097 27.4263L128.189 32.842L127.723 33.1172L127.092 32.0244C126.793 31.4968 126.425 31.0337 125.989 30.6353C125.556 30.2288 125.076 29.9097 124.549 29.6779C124.02 29.4408 123.436 29.3353 122.797 29.3615C122.161 29.3796 121.524 29.5494 120.887 29.8707C119.788 30.4243 119.082 31.1363 118.768 32.0067C118.457 32.869 118.568 33.8279 119.1 34.8834C119.316 35.3121 119.607 35.6828 119.973 35.9956C120.341 36.3003 120.7 36.5393 121.049 36.7126C121.401 36.8778 121.876 37.0186 122.472 37.1347C123.073 37.2482 123.562 37.3245 123.937 37.3635C124.313 37.4026 124.861 37.4491 125.58 37.5032C126.122 37.539 126.57 37.5752 126.925 37.6116C127.284 37.6453 127.725 37.7057 128.245 37.7925C128.769 37.8714 129.213 37.9666 129.579 38.0781C129.944 38.1896 130.348 38.3453 130.792 38.5452C131.238 38.7369 131.623 38.9624 131.949 39.2217C132.28 39.4782 132.607 39.7938 132.93 40.1685C133.253 40.5431 133.534 40.9662 133.771 41.4377C134.498 42.879 134.533 44.3158 133.878 45.748C133.219 47.175 131.995 48.3394 130.206 49.2413C129.659 49.5167 128.869 49.8211 127.834 50.1545C126.799 50.4878 126.132 50.7301 125.832 50.8813C125.51 51.0433 125.221 51.2428 124.964 51.4797L121.435 45.196Z" fill="black"/>
<path d="M174.056 34.5547C172.514 38.1678 170 40.5815 166.515 41.7959C165.025 42.3153 163.428 42.6368 161.724 42.7606C160.025 42.8824 158.117 42.8932 155.998 42.7931C154.644 42.7185 153.371 42.7396 152.179 42.8564C150.992 42.9713 149.697 43.2735 148.292 43.7633L148.138 43.3213C148.54 43.1811 148.969 42.9552 149.426 42.6434C149.883 42.3317 150.252 42.0506 150.533 41.8001C150.815 41.5496 151.211 41.1827 151.722 40.6995C152.146 40.2914 152.54 39.8904 152.904 39.4964C153.269 39.1025 153.694 38.5891 154.179 37.9563C154.667 37.3159 155.092 36.6849 155.453 36.0632C155.815 35.4416 156.154 34.7197 156.471 33.8976C156.792 33.0678 157.017 32.2459 157.147 31.432C157.276 30.6181 157.301 29.7231 157.221 28.7469C157.145 27.7631 156.937 26.784 156.598 25.8095C156.252 24.818 155.784 23.904 155.194 23.0677C154.608 22.2236 153.943 21.5116 153.201 20.9316C152.462 20.3439 151.674 19.8784 150.837 19.5349C150.003 19.1839 149.137 18.9898 148.241 18.9526C147.345 18.9155 146.481 19.0421 145.648 19.3323C144.146 19.8556 142.957 20.6992 142.079 21.8629C141.199 23.021 140.689 24.4027 140.55 26.0081C140.416 27.6114 140.666 29.3224 141.3 31.1411C141.665 32.1893 142.144 33.1534 142.737 34.0333C143.333 34.9057 144.041 35.6883 144.861 36.3811C145.686 37.0719 146.647 37.6329 147.744 38.0638C148.841 38.4948 150.03 38.7604 151.31 38.8607L150.873 39.3562C149.644 39.3653 148.475 39.2579 147.368 39.0339C146.264 38.8022 145.262 38.4715 144.363 38.0416C143.469 37.6097 142.656 37.0923 141.925 36.4894C141.192 35.8808 140.567 35.1995 140.05 34.4456C139.533 33.6918 139.123 32.8786 138.818 32.006C138.512 31.1279 138.336 30.2299 138.289 29.3121C138.246 28.3867 138.32 27.4938 138.509 26.6336C138.704 25.7713 139.01 24.9341 139.426 24.122C139.845 23.3023 140.354 22.5562 140.952 21.884C141.548 21.206 142.242 20.5988 143.033 20.0624C143.831 19.5241 144.688 19.0949 145.606 18.775C147.102 18.2537 148.558 18.01 149.974 18.0438C151.39 18.0777 152.678 18.3656 153.839 18.9077C155.004 19.4421 156.038 20.2288 156.94 21.2678C157.846 22.2991 158.548 23.5286 159.045 24.9564C159.322 25.7496 159.484 26.5633 159.534 27.3976C159.589 28.2299 159.544 29.0398 159.399 29.8273C159.254 30.6149 159.021 31.4141 158.7 32.2249C158.379 33.0357 157.999 33.8132 157.559 34.5573C157.12 35.3015 156.615 36.0493 156.044 36.8009C155.472 37.5469 154.881 38.2485 154.271 38.9057C153.663 39.5687 153.012 40.2246 152.317 40.8735L150.597 42.5023C151.107 42.3435 152.03 42.1839 153.366 42.0234C154.707 41.8609 156.084 41.7112 157.498 41.5743C158.918 41.4355 160.534 41.1962 162.347 40.8565C164.168 40.5205 165.764 40.1136 167.135 39.6357C170.642 38.4134 172.873 36.6828 173.827 34.444L174.056 34.5547Z" fill="black"/>
<path d="M169.526 34.2415L169.468 33.9593L170.491 33.7507C170.679 33.7123 170.834 33.6746 170.955 33.6377C171.081 33.5937 171.196 33.5274 171.3 33.4387C171.405 33.35 171.481 33.258 171.529 33.1625C171.582 33.0658 171.62 32.9203 171.642 32.7261C171.662 32.526 171.664 32.3236 171.646 32.1189C171.634 31.9071 171.6 31.6231 171.546 31.2667C171.498 30.9092 171.439 30.5447 171.369 30.1731C171.298 29.7956 171.204 29.3188 171.086 28.7427L168.755 17.314C168.606 16.585 168.483 16.0101 168.385 15.5892C168.291 15.1613 168.183 14.7669 168.061 14.4061C167.944 14.0441 167.839 13.7839 167.746 13.6254C167.652 13.4669 167.528 13.3391 167.373 13.242C167.219 13.145 167.063 13.1003 166.905 13.1079C166.752 13.1085 166.549 13.1346 166.296 13.1861L165.274 13.3948L165.216 13.1126L172.835 11.5585L172.893 11.8407L171.834 12.0565C171.646 12.0949 171.489 12.1361 171.364 12.1801C171.243 12.217 171.126 12.2775 171.015 12.3615C170.909 12.4442 170.83 12.534 170.776 12.6307C170.728 12.7262 170.689 12.8658 170.659 13.0494C170.634 13.226 170.627 13.4173 170.638 13.6232C170.649 13.8232 170.676 14.0902 170.719 14.4242C170.763 14.7582 170.819 15.1081 170.887 15.4738C170.956 15.8394 171.045 16.2898 171.154 16.8248L174.075 31.1459C174.195 31.7338 174.086 32.2825 173.749 32.7921L173.757 32.8274L177.743 32.0144C178.348 31.8909 178.869 31.7571 179.305 31.613C179.747 31.4678 180.158 31.2797 180.54 31.0488C180.927 30.8167 181.231 30.5496 181.451 30.2475C181.676 29.9383 181.839 29.5653 181.939 29.1283C182.039 28.6855 182.056 28.183 181.99 27.6208L181.605 24.6499L182.204 24.5276L183.084 31.182C182.995 31.3165 182.902 31.4151 182.804 31.4779C182.712 31.5335 182.554 31.5841 182.33 31.6297L169.526 34.2415Z" fill="black"/>
<path d="M207.021 16.8601C207.457 17.2508 207.686 17.734 207.709 18.3095C207.733 18.885 207.543 19.3911 207.14 19.8276C206.737 20.2642 206.248 20.4941 205.673 20.5172C205.097 20.5404 204.591 20.3506 204.154 19.9479C203.718 19.5451 203.488 19.056 203.465 18.4804C203.442 17.9049 203.632 17.4048 204.035 16.9803C204.438 16.5557 204.928 16.3318 205.503 16.3087C206.079 16.2855 206.584 16.4693 207.021 16.8601Z" fill="black"/>
<path d="M231.976 8.20778L242.385 9.38575L242.353 9.67193L241.602 9.58692C241.345 9.55791 241.138 9.54954 240.98 9.5618C240.821 9.57407 240.666 9.63505 240.515 9.74473C240.371 9.84913 240.255 9.98704 240.169 10.1585C240.09 10.3246 240.006 10.5928 239.915 10.963C239.832 11.3279 239.759 11.7333 239.696 12.1791C239.634 12.6249 239.561 13.2144 239.478 13.9478L238.13 25.8597C237.962 27.3443 237.366 28.4996 236.343 29.3258C235.326 30.1466 234.111 30.4771 232.698 30.3172C231.554 30.1877 230.668 29.7403 230.042 28.9751C229.417 28.2039 229.168 27.2549 229.296 26.1281L229.582 26.1605C229.471 27.1382 229.685 27.9172 230.223 28.4974C230.761 29.0776 231.579 29.4298 232.676 29.5539C233.421 29.6382 234.058 29.4507 234.587 28.9912C235.123 28.5265 235.453 27.7487 235.576 26.6576L237.462 9.98801C237.489 9.7555 237.522 9.59621 237.562 9.51016C237.602 9.41814 237.682 9.32454 237.802 9.22937L237.81 9.15783L236.916 9.05663C235.497 8.89606 234.35 9.10444 233.476 9.68177C232.608 10.2538 232.021 11.2743 231.716 12.7434L231.311 14.7263L230.846 14.6737L231.976 8.20778Z" fill="black"/>
<path d="M248.19 24.6809L248.725 24.7607L248.471 26.4369C248.345 27.2938 248.353 28.0878 248.495 28.8187C248.636 29.5496 248.889 30.1818 249.251 30.7153C249.615 31.243 250.071 31.6863 250.619 32.0452C251.175 32.3996 251.801 32.6529 252.499 32.8049C253.818 33.0925 254.963 32.9369 255.935 32.3381C256.914 31.7348 257.543 30.7912 257.823 29.5073C257.9 29.1556 257.927 28.8054 257.905 28.4566C257.89 28.1033 257.841 27.7765 257.759 27.4761C257.683 27.1771 257.555 26.8665 257.373 26.5445C257.193 26.2165 257.011 25.9251 256.827 25.67C256.65 25.4104 256.418 25.1234 256.13 24.8089C255.848 24.4957 255.593 24.2283 255.365 24.0066C255.139 23.7791 254.857 23.506 254.522 23.1871C254.22 22.9065 253.973 22.6745 253.78 22.4912C253.588 22.3019 253.351 22.063 253.07 21.7746C252.79 21.4802 252.561 21.2244 252.381 21.0071C252.202 20.784 252.002 20.5193 251.78 20.213C251.558 19.9067 251.381 19.6224 251.248 19.36C251.12 19.0989 250.994 18.8042 250.869 18.4761C250.746 18.1421 250.662 17.8199 250.619 17.5097C250.578 17.1936 250.559 16.8549 250.564 16.4937C250.571 16.1266 250.614 15.7584 250.695 15.3891C251.004 13.9704 251.787 12.9406 253.045 12.2997C254.308 11.6601 255.804 11.5288 257.534 11.9058C258.085 12.0259 258.744 12.225 259.513 12.503C260.281 12.7811 260.841 12.9584 261.193 13.0351C261.615 13.1271 261.96 13.1778 262.228 13.1871L261.218 19.3412L260.683 19.2614L260.881 18.015C260.981 17.4165 260.987 16.8252 260.899 16.2411C260.819 15.6525 260.647 15.1023 260.384 14.5905C260.122 14.0729 259.735 13.6231 259.223 13.2412C258.718 12.8547 258.116 12.5855 257.419 12.4334C256.217 12.1714 255.22 12.2795 254.428 12.7578C253.643 13.2315 253.125 14.0458 252.873 15.2007C252.771 15.6697 252.763 16.1409 252.85 16.6143C252.945 17.0831 253.073 17.4949 253.235 17.8496C253.404 18.1997 253.684 18.6076 254.074 19.0733C254.469 19.5403 254.801 19.9073 255.068 20.1743C255.335 20.4414 255.731 20.8224 256.256 21.3175C256.654 21.6869 256.979 21.9973 257.232 22.2488C257.49 22.5016 257.794 22.8257 258.143 23.2213C258.5 23.6123 258.786 23.9662 258.999 24.2829C259.212 24.5996 259.428 24.9752 259.647 25.4097C259.872 25.8397 260.03 26.2578 260.119 26.6642C260.215 27.0719 260.27 27.523 260.285 28.0175C260.3 28.512 260.251 29.0173 260.139 29.5331C259.795 31.1101 258.918 32.2483 257.506 32.9478C256.096 33.6413 254.412 33.7747 252.454 33.3479C251.856 33.2175 251.05 32.9559 250.037 32.563C249.023 32.1701 248.352 31.9379 248.024 31.8663C247.672 31.7896 247.322 31.7624 246.973 31.7847L248.19 24.6809Z" fill="black"/>
<path d="M275.917 40.0733C274.427 39.536 273.149 38.7913 272.083 37.8391C271.016 36.887 270.21 35.8054 269.665 34.5946C269.127 33.3801 268.848 32.039 268.829 30.5715C268.815 29.1059 269.086 27.6027 269.642 26.0619C270.149 24.6564 270.895 23.4106 271.88 22.3243C272.872 21.2344 273.981 20.3874 275.207 19.7833C276.438 19.1813 277.771 18.8294 279.204 18.7277C280.638 18.6259 282.037 18.8213 283.403 19.3139C284.888 19.8492 286.16 20.5919 287.221 21.542C288.289 22.4885 289.096 23.5672 289.641 24.7781C290.189 25.9833 290.473 27.3198 290.492 28.7873C290.513 30.2492 290.246 31.7506 289.69 33.2915C289.285 34.4147 288.722 35.4458 288.001 36.3848C287.282 37.3182 286.458 38.099 285.53 38.7274C284.607 39.3578 283.618 39.8462 282.562 40.1925C281.506 40.5387 280.404 40.7026 279.256 40.6842C278.114 40.6677 277.001 40.4641 275.917 40.0733ZM276.202 39.602C277.675 40.1332 279.115 40.2158 280.523 39.8496C281.931 39.4834 283.197 38.7057 284.321 37.5165C285.452 36.3237 286.353 34.7988 287.023 32.9419C287.428 31.8187 287.691 30.6825 287.812 29.5334C287.94 28.3807 287.921 27.2927 287.755 26.2695C287.594 25.2483 287.316 24.303 286.921 23.4336C286.527 22.5642 286 21.8131 285.342 21.1803C284.689 20.5495 283.948 20.0844 283.118 19.7852C281.645 19.254 280.201 19.1733 278.786 19.5431C277.372 19.9072 276.097 20.6847 274.96 21.8755C273.828 23.0683 272.929 24.5875 272.264 26.4332C271.859 27.5564 271.594 28.6953 271.471 29.8501C271.35 30.9992 271.373 32.0853 271.54 33.1086C271.707 34.1318 271.99 35.0792 272.391 35.9506C272.791 36.822 273.317 37.5731 273.97 38.2039C274.628 38.8368 275.372 39.3028 276.202 39.602Z" fill="black"/>
<path d="M292.452 46.4252L292.587 46.1705L293.128 46.4562C293.494 46.6494 293.835 46.7039 294.151 46.6196C294.47 46.5299 294.848 46.2175 295.287 45.6823C295.731 45.1499 296.242 44.3345 296.822 43.2361L303.762 30.087C303.882 29.8588 303.972 29.6756 304.031 29.5373C304.094 29.3938 304.133 29.2551 304.149 29.1212C304.168 28.9821 304.164 28.8746 304.136 28.7989C304.111 28.7178 304.046 28.6291 303.941 28.5329C303.838 28.4313 303.722 28.3429 303.592 28.2676C303.465 28.187 303.285 28.085 303.052 27.9618L302.383 27.609L302.517 27.3542L306.624 29.5218L306.985 46.8089C307.004 47.5447 306.99 47.9577 306.942 48.0479L307.101 48.1319C307.181 47.9297 307.366 47.5527 307.658 47.0008L312.127 38.5319C313.001 36.8763 313.5 35.6473 313.625 34.8449C313.75 34.0424 313.526 33.49 312.953 33.1875L311.616 32.4818L311.75 32.2271L317.322 35.1676L317.188 35.4223L316.646 35.1367C316.238 34.921 315.866 34.8672 315.531 34.9753C315.204 35.0808 314.811 35.4332 314.352 36.0324C313.896 36.6262 313.335 37.5546 312.668 38.8175L304.922 53.4949L304.636 53.3436C304.703 53.2163 304.717 52.5725 304.678 51.4121L304.217 32.0777C304.208 31.8896 304.203 31.6869 304.202 31.4695C304.202 31.2521 304.204 31.0804 304.21 30.9543C304.218 30.823 304.225 30.752 304.23 30.7414L304.103 30.6742C304.023 30.8764 303.832 31.2641 303.53 31.8372L297.363 43.5218C296.582 45.0022 296.147 46.1092 296.058 46.8426C295.973 47.5708 296.216 48.0861 296.789 48.3885L297.331 48.6742L297.196 48.9289L292.452 46.4252Z" fill="black"/>
<path d="M334.189 57.8701C334.275 58.4493 334.144 58.9678 333.794 59.4256C333.445 59.8835 332.976 60.1519 332.387 60.231C331.798 60.31 331.275 60.1748 330.817 59.8253C330.359 59.4758 330.091 59.0067 330.012 58.418C329.933 57.8293 330.068 57.3061 330.418 56.8482C330.767 56.3903 331.233 56.1267 331.814 56.0572C332.395 55.9877 332.915 56.1277 333.373 56.4772C333.831 56.8266 334.103 57.291 334.189 57.8701Z" fill="black"/>
<path d="M352.748 78.9046L354.593 80.8755C355.783 82.1457 357.145 82.7891 358.681 82.8057C360.222 82.8181 361.651 82.2072 362.97 80.9729C363.565 80.4152 364.028 79.7724 364.358 79.0446C364.691 78.3128 364.877 77.576 364.914 76.8344C364.956 76.0886 364.846 75.3443 364.586 74.6014C364.331 73.8628 363.934 73.2067 363.397 72.6329L361.207 70.294L361.102 70.3925C361.012 70.9371 360.68 71.478 360.106 72.0152L352.748 78.9046ZM342.761 81.3012L342.972 81.1044L343.685 81.8665C343.816 82.0066 343.929 82.1186 344.024 82.2024C344.128 82.2864 344.242 82.3517 344.368 82.3983C344.498 82.4408 344.614 82.4595 344.716 82.4544C344.823 82.4536 344.962 82.4136 345.134 82.3344C345.307 82.2552 345.473 82.1567 345.634 82.0388C345.799 81.9254 346.013 81.7584 346.275 81.5378C346.545 81.3175 346.816 81.0844 347.087 80.8387C347.359 80.5929 347.698 80.2793 348.105 79.8979L356.751 71.8029C357.158 71.4216 357.494 71.1036 357.757 70.8491C358.02 70.5945 358.268 70.3416 358.501 70.0904C358.743 69.8394 358.926 69.6353 359.05 69.4781C359.178 69.3252 359.287 69.1654 359.378 68.9986C359.468 68.8317 359.517 68.6954 359.525 68.5895C359.537 68.488 359.523 68.373 359.485 68.2444C359.451 68.1117 359.394 67.993 359.312 67.8885C359.239 67.7842 359.137 67.662 359.006 67.5218L358.292 66.7597L358.503 66.5629L364.359 72.8174C365.38 73.9079 366.081 75.0559 366.461 76.2613C366.842 77.4666 366.88 78.6352 366.575 79.7671C366.274 80.9033 365.647 81.9184 364.692 82.8124C364.039 83.4234 363.278 83.8611 362.407 84.1253C361.546 84.3899 360.67 84.4778 359.782 84.3891C358.893 84.3005 358.004 84.0356 357.114 83.5946C356.225 83.1536 355.433 82.5629 354.74 81.8227L352.354 79.2736L349.778 81.6849C349.24 82.1893 348.81 82.5997 348.49 82.916C348.17 83.2323 347.886 83.535 347.639 83.824C347.4 84.1133 347.235 84.3413 347.145 84.5082C347.063 84.6753 347.021 84.8501 347.019 85.0325C347.026 85.2153 347.072 85.3739 347.157 85.5082C347.241 85.6426 347.372 85.804 347.548 85.9923L348.065 86.5442L347.855 86.741L342.761 81.3012Z" fill="black"/>
<path d="M363.933 106.681C363.105 105.518 362.522 104.32 362.183 103.088C361.845 101.857 361.754 100.669 361.913 99.5255C362.075 98.3868 362.479 97.2999 363.127 96.2646C363.784 95.2308 364.662 94.3226 365.762 93.54C366.559 92.9731 367.427 92.5538 368.368 92.2821C369.312 92.0154 370.261 91.9108 371.215 91.9684C372.17 92.026 373.102 92.2133 374.012 92.5303C374.931 92.8487 375.798 93.3177 376.614 93.9372C377.434 94.5616 378.145 95.2967 378.747 96.1425C379.575 97.3061 380.158 98.5037 380.497 99.7354C380.835 100.967 380.924 102.152 380.762 103.291C380.608 104.431 380.206 105.516 379.555 106.547C378.912 107.578 378.043 108.484 376.947 109.263C375.945 109.976 374.839 110.45 373.629 110.685C372.419 110.92 371.232 110.922 370.066 110.691C368.904 110.465 367.778 110.006 366.69 109.315C365.61 108.625 364.691 107.747 363.933 106.681ZM364.415 106.427C365.215 107.551 366.194 108.353 367.352 108.833C368.519 109.313 369.77 109.436 371.104 109.201C372.443 108.97 373.76 108.394 375.055 107.472C376.38 106.53 377.417 105.395 378.166 104.067C378.915 102.739 379.295 101.389 379.306 100.019C379.323 98.6448 378.952 97.4249 378.194 96.3591C377.394 95.2346 376.418 94.4376 375.267 93.9681C374.12 93.4951 372.884 93.377 371.558 93.6138C370.231 93.8505 368.92 94.4297 367.625 95.3514C366.632 96.0575 365.791 96.888 365.101 97.843C364.415 98.7944 363.927 99.7641 363.636 100.752C363.344 101.74 363.26 102.734 363.384 103.736C363.508 104.738 363.851 105.635 364.415 106.427Z" fill="black"/>
<path d="M376.167 126.358C375.885 125.828 375.647 125.275 375.455 124.697C375.266 124.125 375.103 123.603 374.968 123.132C374.835 122.665 374.698 122.3 374.557 122.035C374.427 121.791 374.21 121.512 373.907 121.198L380.187 117.444L380.441 117.921L378.649 118.998C377.954 119.416 377.387 119.908 376.948 120.475C376.517 121.045 376.227 121.641 376.077 122.265C375.935 122.892 375.908 123.531 375.998 124.184C376.095 124.839 376.31 125.479 376.643 126.104C377.27 127.279 378.11 128.052 379.163 128.422C380.217 128.792 381.284 128.689 382.364 128.113C382.64 127.967 382.871 127.782 383.059 127.56C383.254 127.34 383.403 127.077 383.505 126.771C383.607 126.465 383.684 126.163 383.735 125.863C383.787 125.564 383.808 125.203 383.8 124.779C383.797 124.352 383.782 123.973 383.754 123.64C383.735 123.311 383.7 122.901 383.65 122.411C383.61 122.018 383.579 121.698 383.556 121.451C383.537 121.21 383.515 120.895 383.492 120.507C383.474 120.115 383.466 119.789 383.47 119.529C383.477 119.274 383.494 118.973 383.519 118.626C383.545 118.279 383.589 117.984 383.649 117.741C383.716 117.495 383.801 117.228 383.907 116.941C384.012 116.654 384.141 116.405 384.294 116.194C384.447 115.983 384.629 115.777 384.841 115.576C385.057 115.38 385.299 115.21 385.569 115.066C386.406 114.62 387.254 114.464 388.114 114.597C388.981 114.733 389.782 115.119 390.515 115.755C391.254 116.388 391.898 117.221 392.448 118.253C392.832 118.973 393.15 119.711 393.403 120.467C393.657 121.223 393.82 121.67 393.893 121.807C394.043 122.088 394.243 122.362 394.494 122.629L389.133 125.812L388.879 125.335L389.926 124.696C390.319 124.453 390.68 124.172 391.007 123.855C391.334 123.538 391.616 123.174 391.852 122.762C392.097 122.353 392.271 121.927 392.375 121.484C392.487 121.044 392.508 120.567 392.438 120.053C392.374 119.537 392.208 119.027 391.94 118.524C391.356 117.428 390.658 116.699 389.846 116.336C389.042 115.976 388.134 116.065 387.123 116.604C386.959 116.691 386.81 116.801 386.676 116.933C386.543 117.066 386.43 117.204 386.337 117.349C386.249 117.491 386.176 117.666 386.117 117.874C386.058 118.082 386.008 118.275 385.967 118.454C385.934 118.634 385.913 118.856 385.904 119.12C385.897 119.388 385.893 119.622 385.89 119.821C385.892 120.016 385.904 120.268 385.925 120.577C385.947 120.885 385.967 121.139 385.985 121.34C386.009 121.538 386.039 121.804 386.075 122.139C386.128 122.648 386.166 123.076 386.189 123.424C386.219 123.775 386.237 124.197 386.241 124.691C386.254 125.187 386.24 125.613 386.198 125.969C386.156 126.324 386.082 126.714 385.975 127.138C385.873 127.559 385.733 127.923 385.556 128.228C385.382 128.539 385.152 128.841 384.867 129.136C384.587 129.427 384.257 129.675 383.876 129.878C382.525 130.598 381.137 130.634 379.711 129.986C378.293 129.341 377.112 128.132 376.167 126.358Z" fill="black"/>
<path d="M387.992 140.28L399.382 135.701L398.04 132.36L398.741 132.078L399.386 133.682C399.547 134.083 399.781 134.425 400.089 134.708C400.397 134.992 400.729 135.198 401.085 135.327C401.448 135.459 401.82 135.555 402.2 135.615C402.586 135.674 402.954 135.69 403.306 135.665C403.666 135.644 403.973 135.611 404.227 135.567C404.481 135.523 404.678 135.473 404.817 135.417L407.923 134.168L408.125 134.669L402.38 136.979C401.695 137.254 401.26 137.299 401.076 137.115L401.043 137.128L403.688 143.708L402.686 143.917L400.242 137.838L388.384 142.605C387.471 142.973 386.821 143.48 386.435 144.126C386.048 144.773 385.994 145.442 386.271 146.132C386.638 147.045 387.22 147.639 388.016 147.914C388.817 148.187 389.716 148.123 390.713 147.722L391.548 147.386L391.749 147.887L390.914 148.223C389.69 148.716 388.572 148.783 387.562 148.426C386.554 148.075 385.834 147.362 385.402 146.287C384.888 145.007 384.868 143.816 385.343 142.713C385.818 141.61 386.701 140.799 387.992 140.28Z" fill="black"/>
<path d="M389.724 156.248L390.003 156.178L390.257 157.191C390.304 157.377 390.348 157.53 390.39 157.649C390.44 157.773 390.508 157.886 390.596 157.988C390.689 158.088 390.781 158.161 390.873 158.206C390.966 158.257 391.107 158.289 391.296 158.304C391.486 158.318 391.679 158.313 391.877 158.288C392.076 158.269 392.344 158.227 392.68 158.161C393.024 158.1 393.374 158.028 393.73 157.945C394.087 157.862 394.536 157.752 395.077 157.617L405.798 154.931C406.141 154.845 406.38 154.702 406.516 154.501C406.652 154.306 406.692 154.095 406.635 153.868C406.577 153.635 406.431 153.461 406.199 153.346C405.971 153.23 405.701 153.211 405.386 153.29L404.304 153.561L404.234 153.282L405.316 153.011C405.887 152.868 406.38 152.945 406.794 153.244C407.211 153.548 407.487 153.97 407.622 154.511C407.743 154.994 407.709 155.427 407.52 155.808C407.338 156.194 407 156.449 406.506 156.572L405.248 156.887C403.852 157.237 402.961 157.436 402.577 157.482L402.638 157.727C403.307 157.633 404.012 157.63 404.751 157.717C407.379 158.036 408.963 159.272 409.503 161.426C409.686 162.159 409.746 162.806 409.682 163.366C409.62 163.932 409.444 164.4 409.153 164.77C408.862 165.14 408.51 165.438 408.097 165.665C407.691 165.897 407.2 166.085 406.623 166.229L404.877 166.667L404.912 166.806C405.356 166.726 405.896 166.696 406.532 166.716C407.175 166.74 407.59 166.779 407.776 166.831C408.85 167.094 409.718 167.508 410.379 168.072C411.045 168.635 411.506 169.423 411.759 170.435C412.083 171.727 412.004 172.857 411.523 173.825C411.048 174.792 410.196 175.429 408.968 175.737L400.168 177.941C399.452 178.12 398.877 178.27 398.443 178.391C398.01 178.512 397.615 178.639 397.258 178.772C396.909 178.909 396.654 179.028 396.494 179.13C396.342 179.236 396.22 179.369 396.13 179.527C396.047 179.69 396.01 179.851 396.019 180.01C396.028 180.168 396.064 180.373 396.126 180.623L396.319 181.391L396.039 181.461L394.421 175.001L394.7 174.931L394.77 175.21C394.833 175.461 394.898 175.658 394.965 175.802C395.032 175.946 395.14 176.067 395.288 176.166C395.444 176.269 395.613 176.329 395.797 176.345C395.987 176.365 396.268 176.351 396.639 176.301C397.018 176.256 397.427 176.184 397.866 176.086C398.305 175.989 398.883 175.85 399.599 175.671L407.84 173.607C408.993 173.318 409.832 172.876 410.357 172.281C410.882 171.685 411.058 171.044 410.886 170.357C410.667 169.484 410.201 168.782 409.486 168.249C408.777 167.715 407.891 167.39 406.829 167.273C405.767 167.155 404.61 167.253 403.359 167.567L397.911 168.931C397.195 169.11 396.62 169.261 396.187 169.382C395.753 169.503 395.358 169.629 395.002 169.762C394.652 169.899 394.398 170.018 394.238 170.12C394.085 170.227 393.963 170.359 393.873 170.518C393.79 170.681 393.753 170.842 393.762 171C393.771 171.159 393.807 171.363 393.869 171.613L394.053 172.347L393.774 172.417L392.164 165.991L392.444 165.921L392.514 166.201C392.576 166.451 392.641 166.648 392.708 166.792C392.775 166.936 392.883 167.058 393.031 167.157C393.187 167.26 393.357 167.319 393.54 167.335C393.731 167.356 394.012 167.341 394.383 167.291C394.761 167.246 395.17 167.174 395.609 167.077C396.049 166.979 396.626 166.841 397.342 166.661L405.584 164.597C406.736 164.308 407.575 163.866 408.1 163.271C408.625 162.675 408.801 162.034 408.629 161.348C408.411 160.475 407.943 159.769 407.227 159.231C406.517 158.691 405.627 158.361 404.557 158.239C403.493 158.116 402.339 158.21 401.093 158.522L395.645 159.887C394.929 160.066 394.355 160.216 393.921 160.337C393.488 160.458 393.092 160.585 392.736 160.717C392.387 160.854 392.132 160.974 391.972 161.076C391.819 161.182 391.698 161.314 391.608 161.473C391.525 161.636 391.488 161.797 391.497 161.956C391.506 162.114 391.541 162.319 391.604 162.569L391.866 163.617L391.587 163.686L389.724 156.248Z" fill="black"/>
<path d="M400.207 187.454C401.837 187.29 403.145 187.821 404.131 189.048C405.123 190.275 405.746 192.142 405.999 194.649L406.251 197.156L411.123 196.665C412.406 196.535 413.346 196.133 413.941 195.458C414.543 194.788 414.785 193.877 414.669 192.725C414.526 191.31 414.039 190.25 413.208 189.544C412.377 188.837 411.349 188.507 410.123 188.552L408.318 188.59L408.264 188.052L414.493 187.75C414.45 188.043 414.443 188.334 414.472 188.62C414.499 188.883 414.617 189.459 414.827 190.348C415.038 191.237 415.175 191.999 415.239 192.631C415.434 194.566 415.165 196.088 414.433 197.199C413.701 198.31 412.547 198.945 410.971 199.104L399.688 200.243C399.336 200.278 399.087 200.382 398.942 200.553C398.802 200.724 398.744 200.929 398.768 201.168C398.793 201.413 398.903 201.607 399.098 201.75C399.3 201.898 399.565 201.956 399.894 201.923L400.359 201.876L400.388 202.162L399.923 202.209C399.409 202.261 398.952 202.12 398.55 201.787C398.149 201.453 397.922 201.024 397.869 200.499C397.823 200.051 397.952 199.649 398.254 199.293C398.561 198.936 398.961 198.718 399.454 198.638L402.409 198.159L402.38 197.873C401.66 197.789 401.005 197.631 400.415 197.402C399.825 197.178 399.331 196.908 398.931 196.592C398.537 196.276 398.199 195.915 397.917 195.51C397.635 195.104 397.425 194.694 397.286 194.28C397.142 193.866 397.047 193.436 397.002 192.988C396.841 191.394 397.055 190.1 397.642 189.106C398.23 188.118 399.085 187.567 400.207 187.454ZM400.449 189.854C399.578 189.942 398.906 190.311 398.435 190.962C397.964 191.612 397.773 192.379 397.862 193.263C397.907 193.711 398.024 194.145 398.211 194.566C398.404 194.987 398.682 195.384 399.046 195.758C399.416 196.136 399.849 196.458 400.346 196.721C400.849 196.984 401.456 197.173 402.167 197.288C402.884 197.403 403.661 197.418 404.496 197.333L405.714 197.211L405.476 194.847C405.299 193.092 404.778 191.784 403.913 190.925C403.054 190.064 401.9 189.708 400.449 189.854Z" fill="black"/>
<path d="M398.563 208.952L398.851 208.959L398.827 210.002C398.823 210.194 398.825 210.353 398.834 210.48C398.849 210.612 398.885 210.739 398.943 210.86C399.006 210.982 399.076 211.076 399.152 211.144C399.228 211.218 399.356 211.287 399.535 211.351C399.713 211.415 399.901 211.461 400.098 211.49C400.296 211.524 400.565 211.555 400.907 211.58C401.254 211.612 401.611 211.635 401.976 211.65C402.342 211.664 402.804 211.678 403.362 211.691L414.411 211.943C414.765 211.951 415.034 211.876 415.217 211.719C415.401 211.567 415.495 211.374 415.501 211.14C415.506 210.9 415.412 210.694 415.218 210.521C415.029 210.349 414.773 210.259 414.45 210.252L413.334 210.226L413.34 209.938L414.456 209.964C415.044 209.977 415.498 210.183 415.819 210.58C416.14 210.983 416.294 211.464 416.282 212.022C416.27 212.526 416.122 212.955 415.838 213.308C415.554 213.662 415.16 213.833 414.656 213.821L413.36 213.792C413.036 213.784 412.464 213.762 411.642 213.725C410.827 213.695 410.356 213.669 410.231 213.648L410.226 213.864C410.788 213.955 411.432 214.138 412.158 214.412C413.432 214.874 414.438 215.608 415.177 216.615C415.916 217.622 416.272 218.743 416.244 219.979C416.207 221.575 415.771 222.804 414.935 223.667C414.099 224.53 412.985 224.946 411.594 224.914L403.064 224.719C402.506 224.706 402.044 224.699 401.678 224.696C401.312 224.694 400.955 224.698 400.606 224.708C400.264 224.724 399.994 224.742 399.795 224.761C399.596 224.787 399.406 224.828 399.225 224.883C399.044 224.939 398.913 224.999 398.834 225.064C398.754 225.134 398.68 225.228 398.611 225.346C398.549 225.465 398.507 225.587 398.486 225.713C398.471 225.844 398.461 226.006 398.457 226.198L398.439 226.99L398.151 226.983L398.319 219.641L398.607 219.648L398.583 220.692C398.578 220.884 398.581 221.043 398.59 221.169C398.605 221.301 398.641 221.428 398.698 221.549C398.761 221.671 398.831 221.766 398.908 221.833C398.984 221.907 399.112 221.976 399.29 222.04C399.469 222.104 399.657 222.151 399.854 222.179C400.051 222.214 400.321 222.244 400.662 222.27C401.01 222.302 401.366 222.325 401.732 222.339C402.098 222.353 402.559 222.367 403.117 222.38L410.819 222.556C412.331 222.59 413.47 222.379 414.237 221.923C415.003 221.472 415.398 220.734 415.422 219.708C415.439 218.947 415.287 218.232 414.967 217.564C414.646 216.897 414.188 216.313 413.593 215.813C413.004 215.32 412.272 214.925 411.397 214.629C410.527 214.333 409.571 214.173 408.527 214.149L403.308 214.03C402.57 214.013 401.976 214.005 401.526 214.007C401.076 214.009 400.662 214.026 400.283 214.06C399.91 214.099 399.633 214.147 399.451 214.203C399.276 214.265 399.124 214.36 398.995 214.489C398.872 214.625 398.793 214.77 398.76 214.925C398.726 215.08 398.706 215.287 398.7 215.545L398.676 216.625L398.388 216.618L398.563 208.952Z" fill="black"/>
<path d="M406.839 252.427C406.358 252.761 405.835 252.874 405.27 252.764C404.704 252.654 404.255 252.353 403.923 251.86C403.591 251.368 403.48 250.839 403.59 250.274C403.7 249.708 404.001 249.259 404.493 248.927C404.985 248.595 405.514 248.484 406.08 248.594C406.645 248.704 407.088 249.004 407.409 249.494C407.729 249.984 407.834 250.512 407.724 251.077C407.615 251.642 407.319 252.092 406.839 252.427Z" fill="black"/>
<path d="M396.362 273.36L396.211 273.88L394.584 273.401C393.752 273.161 392.964 273.062 392.221 273.103C391.478 273.145 390.817 273.309 390.239 273.596C389.668 273.886 389.167 274.277 388.737 274.772C388.311 275.274 387.975 275.861 387.73 276.531C387.267 277.8 387.266 278.955 387.728 279.999C388.194 281.051 389.044 281.802 390.278 282.253C390.616 282.376 390.96 282.451 391.308 282.476C391.66 282.508 391.991 282.505 392.299 282.464C392.606 282.429 392.931 282.343 393.275 282.207C393.624 282.073 393.937 281.932 394.215 281.784C394.496 281.644 394.812 281.453 395.162 281.21C395.511 280.973 395.81 280.757 396.06 280.561C396.316 280.367 396.625 280.125 396.986 279.835C397.305 279.575 397.568 279.361 397.776 279.195C397.99 279.03 398.258 278.828 398.582 278.588C398.912 278.351 399.196 278.158 399.436 278.009C399.681 277.862 399.97 277.7 400.304 277.521C400.637 277.343 400.943 277.205 401.221 277.109C401.497 277.018 401.806 276.933 402.148 276.853C402.495 276.776 402.826 276.737 403.139 276.736C403.458 276.738 403.796 276.765 404.153 276.819C404.516 276.875 404.875 276.968 405.23 277.097C406.594 277.596 407.508 278.511 407.974 279.843C408.437 281.181 408.365 282.682 407.757 284.344C407.564 284.874 407.277 285.501 406.898 286.225C406.519 286.948 406.267 287.479 406.144 287.817C405.996 288.223 405.899 288.558 405.853 288.823L399.892 286.991L400.044 286.471L401.252 286.836C401.831 287.015 402.416 287.101 403.007 287.093C403.601 287.093 404.169 286.997 404.712 286.806C405.26 286.616 405.758 286.294 406.206 285.838C406.657 285.389 407.005 284.83 407.25 284.159C407.672 283.004 407.7 282.001 407.333 281.152C406.969 280.31 406.233 279.687 405.122 279.281C404.672 279.116 404.206 279.045 403.725 279.068C403.248 279.098 402.822 279.169 402.449 279.282C402.079 279.402 401.637 279.624 401.123 279.947C400.607 280.276 400.198 280.555 399.898 280.784C399.597 281.013 399.166 281.353 398.605 281.806C398.185 282.151 397.833 282.432 397.55 282.647C397.265 282.869 396.902 283.126 396.463 283.419C396.028 283.72 395.638 283.955 395.296 284.124C394.953 284.292 394.552 284.456 394.092 284.613C393.635 284.779 393.2 284.878 392.785 284.912C392.368 284.952 391.914 284.945 391.422 284.893C390.93 284.841 390.436 284.725 389.94 284.544C388.424 283.99 387.414 282.967 386.912 281.474C386.415 279.983 386.511 278.296 387.198 276.414C387.408 275.839 387.776 275.076 388.303 274.125C388.829 273.174 389.15 272.54 389.265 272.225C389.388 271.886 389.463 271.543 389.488 271.195L396.362 273.36Z" fill="black"/>
<path d="M377.69 298.122C378.344 296.853 379.141 295.786 380.081 294.92C381.02 294.055 382.034 293.43 383.123 293.047C384.21 292.669 385.361 292.53 386.578 292.631C387.798 292.741 389.008 293.105 390.207 293.724C391.077 294.172 391.847 294.752 392.52 295.464C393.19 296.181 393.718 296.976 394.104 297.851C394.49 298.725 394.751 299.639 394.886 300.594C395.025 301.556 395.005 302.542 394.829 303.552C394.65 304.566 394.322 305.535 393.846 306.457C393.192 307.726 392.395 308.794 391.455 309.659C390.516 310.525 389.503 311.147 388.417 311.525C387.333 311.911 386.184 312.051 384.97 311.944C383.758 311.846 382.555 311.489 381.361 310.872C380.268 310.308 379.339 309.543 378.576 308.575C377.813 307.607 377.267 306.553 376.937 305.411C376.606 304.274 376.497 303.064 376.613 301.78C376.731 300.504 377.09 299.285 377.69 298.122ZM378.137 298.434C377.504 299.66 377.24 300.898 377.345 302.147C377.453 303.404 377.917 304.572 378.738 305.651C379.556 306.734 380.672 307.641 382.085 308.37C383.53 309.115 385.014 309.516 386.537 309.573C388.061 309.63 389.434 309.349 390.658 308.732C391.887 308.117 392.801 307.228 393.4 306.065C394.033 304.839 394.294 303.606 394.184 302.368C394.079 301.132 393.617 299.979 392.799 298.909C391.98 297.839 390.864 296.939 389.451 296.21C388.369 295.652 387.245 295.284 386.08 295.109C384.92 294.936 383.835 294.946 382.823 295.14C381.812 295.334 380.889 295.715 380.056 296.285C379.222 296.854 378.582 297.57 378.137 298.434Z" fill="black"/>
<path d="M376.844 318.344C377.643 318.908 378.322 319.584 378.883 320.37C379.445 321.165 379.858 322.016 380.121 322.922C380.38 323.833 380.508 324.769 380.505 325.729C380.506 326.693 380.349 327.659 380.032 328.625C379.717 329.6 379.26 330.512 378.66 331.359C378.227 331.971 377.62 332.663 376.84 333.433C376.059 334.204 375.546 334.763 375.3 335.111C375.154 335.317 374.974 335.675 374.76 336.185L368.641 332.119L368.952 331.679L370.963 333.013C371.73 333.519 372.59 333.742 373.544 333.681C374.494 333.626 375.392 333.339 376.237 332.82C377.084 332.309 377.793 331.65 378.365 330.841C379.127 329.764 379.532 328.621 379.579 327.412C379.631 326.206 379.323 325.026 378.656 323.87C377.989 322.714 377.006 321.678 375.708 320.759C374.778 320.101 373.836 319.603 372.883 319.267C371.932 318.939 371.042 318.773 370.215 318.769C369.385 318.769 368.587 318.888 367.823 319.127C367.06 319.373 366.38 319.722 365.781 320.174C365.183 320.625 364.667 321.156 364.234 321.769C363.745 322.459 363.382 323.191 363.144 323.963C362.906 324.736 362.823 325.57 362.895 326.466C362.971 327.365 363.24 328.232 363.701 329.065L363.263 329.373C362.415 328.067 362.054 326.662 362.179 325.155C362.309 323.652 362.849 322.23 363.799 320.888C364.894 319.34 366.173 318.191 367.638 317.441C369.107 316.694 370.64 316.397 372.237 316.55C373.834 316.702 375.37 317.3 376.844 318.344Z" fill="black"/>
<path d="M357.145 337.719L370.798 350.368C371.009 350.564 371.225 350.657 371.445 350.649C371.666 350.641 371.874 350.531 372.069 350.319L373.024 349.29L373.209 349.461L372.034 350.728C370.925 351.926 370.641 352.938 371.182 353.767L371.344 354.015L371.198 354.174L367.544 350.543L359.093 342.714C358.697 343.141 358.42 343.485 358.26 343.746C358.1 344.006 358.035 344.244 358.064 344.46L358.592 349.611L358.916 351.433C359.01 351.985 359.173 352.37 359.406 352.586C359.798 352.949 360.322 352.776 360.978 352.067L361.076 351.962L361.288 352.158L356.786 357.017L356.574 356.821L356.746 356.636C357.186 356.161 357.535 355.506 357.792 354.673C358.049 353.848 358.16 352.965 358.124 352.024L358.059 349.657L357.541 344.76L357.461 344.687C356.92 345.06 356.396 345.364 355.891 345.6C355.391 345.84 354.935 346.014 354.523 346.123C354.116 346.237 353.71 346.29 353.306 346.285C352.903 346.287 352.548 346.256 352.239 346.192C351.936 346.131 351.613 346.02 351.271 345.859C350.93 345.698 350.639 345.544 350.4 345.396C350.161 345.248 349.884 345.061 349.57 344.835C349.051 344.46 348.6 344.165 348.218 343.95C347.832 343.74 347.451 343.591 347.074 343.504C346.697 343.416 346.349 343.429 346.031 343.544C345.712 343.658 345.407 343.873 345.113 344.19C344.77 344.56 344.577 345.051 344.532 345.664L344.501 346.175L344.245 346.134L344.278 345.674C344.36 344.49 344.642 343.639 345.123 343.12C345.506 342.706 345.904 342.391 346.316 342.176C346.724 341.957 347.127 341.827 347.524 341.786C347.922 341.745 348.354 341.786 348.822 341.909C349.289 342.039 349.744 342.215 350.185 342.436C350.627 342.657 351.124 342.946 351.677 343.303C351.951 343.483 352.175 343.625 352.349 343.729C352.523 343.841 352.749 343.969 353.026 344.111C353.304 344.262 353.541 344.371 353.739 344.44C353.937 344.509 354.177 344.576 354.46 344.642C354.739 344.712 354.994 344.736 355.227 344.715C355.46 344.702 355.722 344.662 356.012 344.596C356.303 344.538 356.581 344.432 356.847 344.277C357.117 344.127 357.405 343.931 357.71 343.69C358.019 343.453 358.329 343.168 358.639 342.833L358.908 342.543L355.554 339.435C355.154 339.064 354.815 338.755 354.538 338.506C354.261 338.258 353.991 338.028 353.728 337.817C353.466 337.607 353.249 337.443 353.079 337.326C352.914 337.214 352.747 337.12 352.578 337.046C352.41 336.98 352.273 336.943 352.166 336.934C352.056 336.93 351.938 336.952 351.812 336.999C351.682 337.051 351.568 337.116 351.469 337.197C351.371 337.285 351.256 337.4 351.126 337.541L350.416 338.307L350.205 338.111L355.392 332.512L355.603 332.708L354.894 333.474C354.718 333.663 354.589 333.821 354.504 333.947C354.42 334.082 354.38 334.241 354.382 334.423C354.385 334.606 354.43 334.778 354.517 334.94C354.603 335.103 354.771 335.328 355.02 335.615C355.265 335.908 355.543 336.203 355.856 336.501C356.169 336.807 356.599 337.213 357.145 337.719Z" fill="black"/>
<path d="M344.039 357.108C344.665 357.86 345.152 358.684 345.501 359.58C345.849 360.485 346.043 361.401 346.082 362.329C346.121 363.258 346.029 364.174 345.807 365.078C345.588 365.987 345.217 366.854 344.695 367.68C344.176 368.51 343.537 369.242 342.776 369.876C341.154 371.228 339.504 371.892 337.828 371.868C336.156 371.848 334.734 371.135 333.562 369.729C333.32 369.439 333.196 369.144 333.189 368.845C333.181 368.555 333.295 368.312 333.53 368.116L343.092 360.147C342.787 359.659 342.417 359.155 341.983 358.634C341.249 357.754 340.43 357.038 339.526 356.487C338.622 355.937 337.703 355.574 336.769 355.4C335.834 355.234 334.888 355.276 333.933 355.525C332.972 355.779 332.087 356.244 331.275 356.92C330.34 357.699 329.593 358.626 329.035 359.7C328.481 360.779 328.24 361.909 328.312 363.092L327.772 363.119C327.703 361.78 327.959 360.48 328.542 359.221C329.124 357.97 330.017 356.844 331.22 355.841C332.243 354.988 333.33 354.371 334.481 353.99C335.631 353.618 336.764 353.486 337.878 353.596C338.988 353.71 340.076 354.064 341.143 354.66C342.209 355.255 343.174 356.071 344.039 357.108ZM343.368 360.62L335.535 367.429C335.419 367.525 335.356 367.636 335.345 367.763C335.332 367.898 335.382 368.033 335.493 368.166C336.557 369.443 337.726 370.18 338.999 370.376C340.271 370.581 341.444 370.237 342.518 369.342C343.753 368.312 344.441 367.02 344.583 365.465C344.728 363.915 344.323 362.3 343.368 360.62Z" fill="black"/>
<path d="M319.859 370.185L326.58 380.457L329.592 378.486L330.006 379.119L328.56 380.065C328.199 380.302 327.909 380.599 327.692 380.956C327.474 381.314 327.337 381.68 327.28 382.054C327.222 382.436 327.2 382.819 327.215 383.204C327.234 383.593 327.29 383.958 327.383 384.299C327.475 384.647 327.567 384.942 327.66 385.182C327.753 385.423 327.84 385.605 327.923 385.731L329.756 388.533L329.304 388.828L325.913 383.647C325.509 383.029 325.38 382.612 325.525 382.395L325.505 382.365L319.571 386.248L319.169 385.306L324.652 381.719L317.655 371.025C317.116 370.201 316.492 369.663 315.781 369.411C315.071 369.159 314.405 369.236 313.782 369.643C312.959 370.182 312.49 370.869 312.377 371.703C312.266 372.543 312.505 373.412 313.093 374.31L313.586 375.064L313.134 375.359L312.641 374.606C311.919 373.501 311.633 372.419 311.786 371.359C311.933 370.301 312.491 369.456 313.46 368.822C314.615 368.066 315.779 367.813 316.954 368.063C318.128 368.313 319.096 369.02 319.859 370.185Z" fill="black"/>
<path d="M303.295 377.937C302.947 378.127 302.61 378.167 302.284 378.058C301.961 377.954 301.7 377.72 301.502 377.356C301.31 377.003 301.255 376.664 301.338 376.339C301.423 376.019 301.645 375.762 302.003 375.567C302.356 375.374 302.703 375.322 303.045 375.409C303.381 375.499 303.646 375.723 303.842 376.082C304.034 376.435 304.08 376.782 303.979 377.124C303.881 377.471 303.653 377.742 303.295 377.937Z" fill="black"/>
<path d="M301.077 402.853C300.712 403.021 300.373 403.052 300.059 402.945C299.741 402.841 299.496 402.604 299.325 402.233C299.157 401.868 299.128 401.518 299.238 401.183C299.35 400.854 299.592 400.604 299.962 400.433C300.327 400.265 300.68 400.241 301.02 400.362C301.354 400.486 301.606 400.733 301.777 401.103C301.943 401.463 301.963 401.8 301.838 402.116C301.707 402.434 301.453 402.68 301.077 402.853ZM294.261 385.223L299.067 395.653C299.203 395.947 299.394 396.147 299.64 396.251C299.881 396.358 300.135 396.35 300.402 396.227L301.416 395.76L301.536 396.022L297.842 397.724C297.722 397.779 297.626 397.794 297.554 397.767C297.483 397.741 297.419 397.668 297.364 397.548L292.136 386.203C291.907 385.707 291.712 385.291 291.551 384.956C291.39 384.621 291.228 384.305 291.066 384.01C290.903 383.715 290.766 383.481 290.653 383.308C290.543 383.141 290.424 382.991 290.297 382.858C290.167 382.733 290.054 382.646 289.959 382.598C289.858 382.552 289.741 382.526 289.607 382.522C289.467 382.52 289.337 382.538 289.215 382.574C289.09 382.618 288.94 382.681 288.766 382.761L287.785 383.213L287.664 382.952L294.629 379.742L294.749 380.004L293.801 380.441C293.567 380.549 293.386 380.645 293.26 380.73C293.131 380.822 293.033 380.953 292.966 381.123C292.899 381.293 292.874 381.469 292.893 381.652C292.911 381.835 292.98 382.107 293.1 382.468C293.215 382.832 293.36 383.211 293.535 383.606C293.708 384.008 293.949 384.548 294.261 385.223Z" fill="black"/>
<path d="M272.195 388.591C273.55 388.139 274.866 387.932 276.143 387.968C277.42 388.003 278.582 388.264 279.629 388.75C280.671 389.237 281.592 389.942 282.393 390.864C283.19 391.794 283.802 392.899 284.229 394.18C284.538 395.108 284.686 396.061 284.67 397.04C284.65 398.021 284.472 398.959 284.138 399.855C283.805 400.75 283.353 401.587 282.784 402.365C282.211 403.151 281.509 403.843 280.678 404.443C279.841 405.044 278.931 405.509 277.946 405.838C276.591 406.289 275.276 406.497 273.999 406.461C272.722 406.425 271.562 406.164 270.521 405.676C269.475 405.196 268.555 404.494 267.76 403.57C266.961 402.654 266.349 401.558 265.924 400.283C265.535 399.116 265.405 397.92 265.534 396.694C265.663 395.469 266.008 394.332 266.569 393.285C267.125 392.239 267.892 391.297 268.871 390.458C269.847 389.627 270.955 389.005 272.195 388.591ZM272.298 389.126C270.989 389.563 269.936 390.265 269.139 391.233C268.338 392.208 267.856 393.368 267.691 394.713C267.52 396.061 267.686 397.488 268.189 398.997C268.703 400.539 269.486 401.863 270.537 402.967C271.589 404.071 272.768 404.829 274.075 405.24C275.385 405.658 276.66 405.659 277.9 405.246C279.21 404.809 280.257 404.109 281.042 403.145C281.83 402.187 282.304 401.039 282.465 399.701C282.626 398.364 282.455 396.941 281.952 395.432C281.567 394.277 281.019 393.229 280.307 392.29C279.597 391.357 278.813 390.607 277.953 390.039C277.094 389.472 276.167 389.101 275.172 388.927C274.178 388.752 273.22 388.819 272.298 389.126Z" fill="black"/>
<path d="M240.964 408.741C240.489 408.398 240.211 407.942 240.127 407.372C240.044 406.802 240.18 406.279 240.535 405.802C240.89 405.326 241.353 405.047 241.923 404.964C242.493 404.88 243.016 405.016 243.492 405.371C243.968 405.726 244.248 406.189 244.331 406.759C244.414 407.329 244.277 407.846 243.921 408.31C243.564 408.775 243.1 409.048 242.53 409.131C241.96 409.215 241.438 409.085 240.964 408.741Z" fill="black"/>
</svg>
