<svg width="4917" height="660" viewBox="0 0 4917 660" fill="none" xmlns="http://www.w3.org/2000/svg">
<path d="M531 153H204V268H466V421H204V660H4.41074e-06V-2.6226e-05H531V153ZM613.281 660V-2.6226e-05H1145.28V153H817.281V260H1079.28V402H817.281V507H1158.28V660H613.281ZM1579.21 -2.6226e-05C1661.21 -2.6226e-05 1724.54 19 1769.21 57C1814.54 94.3333 1837.21 144.333 1837.21 207C1837.21 277 1815.21 330 1771.21 366C1727.21 402 1663.88 420 1581.21 420L1561.21 431H1441.21V660H1241.21V-2.6226e-05H1579.21ZM1546.21 292C1574.88 292 1596.21 286.667 1610.21 276C1624.88 264.667 1632.21 246.333 1632.21 221C1632.21 195.667 1624.88 177.333 1610.21 166C1596.21 154.667 1574.88 149 1546.21 149H1441.21V292H1546.21ZM1667.21 335L1875.21 660H1652.21L1491.21 371L1667.21 335ZM2277.45 -2.6226e-05C2359.45 -2.6226e-05 2422.79 19 2467.45 57C2512.79 94.3333 2535.45 144.333 2535.45 207C2535.45 277 2513.45 330 2469.45 366C2425.45 402 2362.12 420 2279.45 420L2259.45 431H2139.45V660H1939.45V-2.6226e-05H2277.45ZM2244.45 292C2273.12 292 2294.45 286.667 2308.45 276C2323.12 264.667 2330.45 246.333 2330.45 221C2330.45 195.667 2323.12 177.333 2308.45 166C2294.45 154.667 2273.12 149 2244.45 149H2139.45V292H2244.45ZM2365.45 335L2573.45 660H2350.45L2189.45 371L2365.45 335ZM2637.7 660V-2.6226e-05H3169.7V153H2841.7V260H3103.7V402H2841.7V507H3182.7V660H2637.7ZM3469.63 -2.6226e-05V660H3265.63V-2.6226e-05H3469.63ZM3929.8 -2.6226e-05C4011.8 -2.6226e-05 4075.13 19 4119.8 57C4165.13 94.3333 4187.8 144.333 4187.8 207C4187.8 277 4165.8 330 4121.8 366C4077.8 402 4014.46 420 3931.8 420L3911.8 431H3791.8V660H3591.8V-2.6226e-05H3929.8ZM3896.8 292C3925.46 292 3946.8 286.667 3960.8 276C3975.46 264.667 3982.8 246.333 3982.8 221C3982.8 195.667 3975.46 177.333 3960.8 166C3946.8 154.667 3925.46 149 3896.8 149H3791.8V292H3896.8ZM4017.8 335L4225.8 660H4002.8L3841.8 371L4017.8 335ZM4916.04 660H4706.04L4669.04 523H4468.04L4430.04 660H4226.04L4448.04 -2.6226e-05H4693.04L4916.04 660ZM4502.04 391H4636.04L4569.04 145L4502.04 391Z" fill="black"/>
</svg>
